<?xml version="1.0" encoding="UTF-8" standalone="no"?>
<!DOCTYPE svg PUBLIC "-//W3C//DTD SVG 1.1//EN"
 "http://www.w3.org/Graphics/SVG/1.1/DTD/svg11.dtd">
<!-- Generated by graphviz version 12.2.1 (20250203.1708)
 -->
<!-- Pages: 1 -->
<svg width="1342pt" height="715pt"
 viewBox="0.00 0.00 1342.29 714.57" xmlns="http://www.w3.org/2000/svg" xmlns:xlink="http://www.w3.org/1999/xlink">
<g id="graph0" class="graph" transform="scale(1 1) rotate(0) translate(4 710.57)">
<polygon fill="white" stroke="none" points="-4,4 -4,-710.57 1338.29,-710.57 1338.29,4 -4,4"/>
<!-- BulkMagnet -->
<g id="node1" class="node">
<title>BulkMagnet</title>
<g id="a_node1"><a xlink:href="https://w3id.org/emmo/domain/magnetic_materials#EMMO_d28323da-810f-5cbe-a770-eab7e7fdb493" xlink:title="BulkMagnet">
<ellipse fill="#ffffcc" stroke="black" stroke-width="2" cx="428.43" cy="-568.07" rx="72.25" ry="18"/>
<text text-anchor="middle" x="428.43" y="-563.4" font-family="Times,serif" font-size="14.00">BulkMagnet</text>
</a>
</g>
</g>
<!-- MaterialBySize -->
<g id="node2" class="node">
<title>MaterialBySize</title>
<g id="a_node2"><a xlink:href="https://w3id.org/emmo#EMMO_e4e80813_f379_4091_b017_ee059811f806" xlink:title="MaterialBySize">
<ellipse fill="#ffffcc" stroke="red" cx="914.58" cy="-576.07" rx="88.04" ry="18"/>
<text text-anchor="middle" x="914.58" y="-571.4" font-family="Times,serif" font-size="14.00">MaterialBySize</text>
</a>
</g>
</g>
<!-- BulkMagnet&#45;&gt;MaterialBySize -->
<g id="edge1" class="edge">
<title>BulkMagnet&#45;&gt;MaterialBySize</title>
<path fill="none" stroke="black" d="M501.39,-569.26C584.58,-570.64 721.98,-572.91 815.05,-574.44"/>
<polygon fill="none" stroke="black" points="814.89,-577.94 824.95,-574.61 815.01,-570.94 814.89,-577.94"/>
<text text-anchor="middle" x="680.71" y="-577.43" font-family="Times,serif" font-size="14.00">isA</text>
</g>
<!-- Magnet -->
<g id="node3" class="node">
<title>Magnet</title>
<g id="a_node3"><a xlink:href="https://w3id.org/emmo/domain/magnetic_materials#EMMO_099b796d-3163-56c7-bc90-3a304256ca5d" xlink:title="Magnet">
<ellipse fill="#ffffcc" stroke="red" cx="914.58" cy="-522.07" rx="49.63" ry="18"/>
<text text-anchor="middle" x="914.58" y="-517.4" font-family="Times,serif" font-size="14.00">Magnet</text>
</a>
</g>
</g>
<!-- BulkMagnet&#45;&gt;Magnet -->
<g id="edge2" class="edge">
<title>BulkMagnet&#45;&gt;Magnet</title>
<path fill="none" stroke="black" d="M495.91,-560.8C528.05,-557.35 567.19,-553.24 602.34,-549.82 690.15,-541.27 792,-532.39 854.61,-527.04"/>
<polygon fill="none" stroke="black" points="854.66,-530.55 864.32,-526.21 854.06,-523.58 854.66,-530.55"/>
<text text-anchor="middle" x="680.71" y="-553.77" font-family="Times,serif" font-size="14.00">isA</text>
</g>
<!-- DemagnetizingFactor -->
<g id="node4" class="node">
<title>DemagnetizingFactor</title>
<g id="a_node4"><a xlink:href="https://w3id.org/emmo/domain/magnetic_materials#EMMO_0f2b5cc9-d00a-5030-8448-99ba6b7dfd1e" xlink:title="DemagnetizingFactor">
<ellipse fill="#ffffcc" stroke="red" cx="428.43" cy="-19.07" rx="119.08" ry="18"/>
<text text-anchor="middle" x="428.43" y="-14.4" font-family="Times,serif" font-size="14.00">DemagnetizingFactor</text>
</a>
</g>
</g>
<!-- BulkMagnet&#45;&gt;DemagnetizingFactor -->
<g id="edge3" class="edge">
<title>BulkMagnet&#45;&gt;DemagnetizingFactor</title>
<path fill="none" stroke="orange" stroke-dasharray="1,5" d="M356.02,-565.97C328.05,-562.27 296.96,-554.34 272.53,-538.07 172.46,-471.44 157.67,-427.79 122.95,-312.7 83.71,-182.61 160.46,-122.9 272.53,-46.07 282.96,-38.92 294.67,-33.47 306.88,-29.34"/>
<polygon fill="orange" stroke="orange" points="307.71,-32.74 316.26,-26.48 305.67,-26.05 307.71,-32.74"/>
<text text-anchor="middle" x="155.9" y="-299.4" font-family="Times,serif" font-size="14.00">hasProperty exactly 1</text>
</g>
<!-- SampleGeometry -->
<g id="node5" class="node">
<title>SampleGeometry</title>
<g id="a_node5"><a xlink:href="https://w3id.org/emmo/domain/magnetic_materials#EMMO_b7ebd85f-36aa-540a-b8a9-e2c1094f27f1" xlink:title="SampleGeometry">
<ellipse fill="#ffffcc" stroke="red" cx="914.58" cy="-422.07" rx="98.03" ry="18"/>
<text text-anchor="middle" x="914.58" y="-417.4" font-family="Times,serif" font-size="14.00">SampleGeometry</text>
</a>
</g>
</g>
<!-- BulkMagnet&#45;&gt;SampleGeometry -->
<g id="edge4" class="edge">
<title>BulkMagnet&#45;&gt;SampleGeometry</title>
<path fill="none" stroke="orange" stroke-dasharray="1,5" d="M499.61,-572.24C530.04,-570.08 563.42,-561.63 584.34,-538.07 621.05,-496.71 561.84,-327.49 602.34,-289.82 627.84,-266.1 731.86,-268.09 759.09,-289.82 787.31,-312.36 753.49,-341.72 777.09,-369.07 791.79,-386.11 812.65,-397.71 833.65,-405.58"/>
<polygon fill="orange" stroke="orange" points="832.25,-408.8 842.84,-408.77 834.54,-402.19 832.25,-408.8"/>
<text text-anchor="middle" x="680.71" y="-293.77" font-family="Times,serif" font-size="14.00">hasProperty exactly 1</text>
</g>
<!-- ShapeAnisotropy -->
<g id="node6" class="node">
<title>ShapeAnisotropy</title>
<g id="a_node6"><a xlink:href="https://w3id.org/emmo/domain/magnetic_materials#EMMO_f8f03807-d6b6-5ebf-8e0b-418311e8e1e5" xlink:title="ShapeAnisotropy">
<ellipse fill="#ffffcc" stroke="red" cx="914.58" cy="-342.07" rx="96.45" ry="18"/>
<text text-anchor="middle" x="914.58" y="-337.4" font-family="Times,serif" font-size="14.00">ShapeAnisotropy</text>
</a>
</g>
</g>
<!-- BulkMagnet&#45;&gt;ShapeAnisotropy -->
<g id="edge5" class="edge">
<title>BulkMagnet&#45;&gt;ShapeAnisotropy</title>
<path fill="none" stroke="orange" stroke-dasharray="1,5" d="M499.47,-572.49C530.07,-570.43 563.62,-561.98 584.34,-538.07 611.45,-506.77 572.36,-194.39 602.34,-165.82 652.77,-117.76 695.63,-137.06 759.09,-165.82 826.42,-196.34 875.99,-272.31 899.1,-313.85"/>
<polygon fill="orange" stroke="orange" points="895.96,-315.41 903.81,-322.53 902.12,-312.07 895.96,-315.41"/>
<text text-anchor="middle" x="680.71" y="-169.77" font-family="Times,serif" font-size="14.00">hasProperty exactly 1</text>
</g>
<!-- Material -->
<g id="node7" class="node">
<title>Material</title>
<g id="a_node7"><a xlink:href="https://w3id.org/emmo#EMMO_4207e895_8b83_4318_996a_72cfb32acd94" xlink:title="Material">
<ellipse fill="#ffffcc" stroke="red" cx="1222.05" cy="-576.07" rx="53.84" ry="18"/>
<text text-anchor="middle" x="1222.05" y="-571.4" font-family="Times,serif" font-size="14.00">Material</text>
</a>
</g>
</g>
<!-- MaterialBySize&#45;&gt;Material -->
<g id="edge6" class="edge">
<title>MaterialBySize&#45;&gt;Material</title>
<path fill="none" stroke="black" d="M1002.71,-576.07C1051.7,-576.07 1111.81,-576.07 1156.55,-576.07"/>
<polygon fill="none" stroke="black" points="1156.35,-579.57 1166.35,-576.07 1156.35,-572.57 1156.35,-579.57"/>
<text text-anchor="middle" x="1080.94" y="-580.02" font-family="Times,serif" font-size="14.00">isA</text>
</g>
<!-- Referent -->
<g id="node8" class="node">
<title>Referent</title>
<g id="a_node8"><a xlink:href="https://w3id.org/emmo#EMMO_6f5af708_f825_4feb_a0d1_a8d813d3022b" xlink:title="Referent">
<ellipse fill="#ffffcc" stroke="red" cx="1222.05" cy="-456.07" rx="54.89" ry="18"/>
<text text-anchor="middle" x="1222.05" y="-451.4" font-family="Times,serif" font-size="14.00">Referent</text>
</a>
</g>
</g>
<!-- Magnet&#45;&gt;Referent -->
<g id="edge7" class="edge">
<title>Magnet&#45;&gt;Referent</title>
<path fill="none" stroke="black" d="M958.05,-512.89C1011.8,-501.28 1104.56,-481.24 1164.33,-468.33"/>
<polygon fill="none" stroke="black" points="1164.94,-471.78 1173.98,-466.24 1163.46,-464.93 1164.94,-471.78"/>
<text text-anchor="middle" x="1080.94" y="-491.04" font-family="Times,serif" font-size="14.00">isA</text>
</g>
<!-- MaterialByFunction -->
<g id="node9" class="node">
<title>MaterialByFunction</title>
<g id="a_node9"><a xlink:href="https://w3id.org/emmo#EMMO_8820f251_ad36_43f4_a693_c0e86a89cc1f" xlink:title="MaterialByFunction">
<ellipse fill="#ffffcc" stroke="red" cx="1222.05" cy="-522.07" rx="111.18" ry="18"/>
<text text-anchor="middle" x="1222.05" y="-517.4" font-family="Times,serif" font-size="14.00">MaterialByFunction</text>
</a>
</g>
</g>
<!-- Magnet&#45;&gt;MaterialByFunction -->
<g id="edge8" class="edge">
<title>Magnet&#45;&gt;MaterialByFunction</title>
<path fill="none" stroke="black" d="M964.66,-522.07C1001.04,-522.07 1052.27,-522.07 1099.39,-522.07"/>
<polygon fill="none" stroke="black" points="1099.12,-525.57 1109.12,-522.07 1099.12,-518.57 1099.12,-525.57"/>
<text text-anchor="middle" x="1080.94" y="-526.02" font-family="Times,serif" font-size="14.00">isA</text>
</g>
<!-- MaterialsProcessing -->
<g id="node10" class="node">
<title>MaterialsProcessing</title>
<g id="a_node10"><a xlink:href="https://w3id.org/emmo#EMMO_71d1c8f0_c6e3_44b5_a4b6_1b74ff35698a" xlink:title="MaterialsProcessing">
<ellipse fill="#ffffcc" stroke="red" cx="428.43" cy="-511.07" rx="113.82" ry="18"/>
<text text-anchor="middle" x="428.43" y="-506.4" font-family="Times,serif" font-size="14.00">MaterialsProcessing</text>
</a>
</g>
</g>
<!-- Magnet&#45;&gt;MaterialsProcessing -->
<g id="edge9" class="edge">
<title>Magnet&#45;&gt;MaterialsProcessing</title>
<path fill="none" stroke="orange" stroke-dasharray="1,5" d="M873.92,-511.44C842.92,-503.71 798.61,-493.9 759.09,-489.82 679.27,-481.58 588.24,-488.69 522.09,-496.84"/>
<polygon fill="orange" stroke="orange" points="521.85,-493.34 512.36,-498.07 522.72,-500.29 521.85,-493.34"/>
<text text-anchor="middle" x="680.71" y="-493.77" font-family="Times,serif" font-size="14.00">hasProperty min 0</text>
</g>
<!-- GranularMicrostructure -->
<g id="node11" class="node">
<title>GranularMicrostructure</title>
<g id="a_node11"><a xlink:href="https://w3id.org/emmo/domain/magnetic_materials#EMMO_cf5261fe-bdab-5c7b-b6a8-f9a313687bc2" xlink:title="GranularMicrostructure">
<ellipse fill="#ffffcc" stroke="red" cx="428.43" cy="-451.07" rx="131.7" ry="18"/>
<text text-anchor="middle" x="428.43" y="-446.4" font-family="Times,serif" font-size="14.00">GranularMicrostructure</text>
</a>
</g>
</g>
<!-- Magnet&#45;&gt;GranularMicrostructure -->
<g id="edge10" class="edge">
<title>Magnet&#45;&gt;GranularMicrostructure</title>
<path fill="none" stroke="darkgreen" d="M883.34,-507.63C852.78,-493.82 803.82,-473.81 759.09,-464.82 697.36,-452.42 627.87,-448.13 568.66,-447.28"/>
<polygon fill="darkgreen" stroke="darkgreen" points="568.89,-443.78 558.85,-447.17 568.82,-450.78 568.89,-443.78"/>
<text text-anchor="middle" x="680.71" y="-468.77" font-family="Times,serif" font-size="14.00">hasSpatialPart min 0</text>
</g>
<!-- WorkpieceForming -->
<g id="node12" class="node">
<title>WorkpieceForming</title>
<g id="a_node12"><a xlink:href="https://w3id.org/emmo#EMMO_dd4b7d81_28a9_4801_8831_4cbab217e362" xlink:title="WorkpieceForming">
<ellipse fill="#ffffcc" stroke="red" cx="428.43" cy="-397.07" rx="105.4" ry="18"/>
<text text-anchor="middle" x="428.43" y="-392.4" font-family="Times,serif" font-size="14.00">WorkpieceForming</text>
</a>
</g>
</g>
<!-- Magnet&#45;&gt;WorkpieceForming -->
<g id="edge11" class="edge">
<title>Magnet&#45;&gt;WorkpieceForming</title>
<path fill="none" stroke="orange" stroke-dasharray="1,5" d="M880.17,-508.73C851.06,-496.09 808.67,-475.18 777.09,-449.07 767.28,-440.97 770.31,-432.81 759.09,-426.82 688.5,-389.14 597.16,-383.65 528.54,-386.48"/>
<polygon fill="orange" stroke="orange" points="528.63,-382.97 518.81,-386.95 528.97,-389.96 528.63,-382.97"/>
<text text-anchor="middle" x="680.71" y="-430.77" font-family="Times,serif" font-size="14.00">hasProperty min 0</text>
</g>
<!-- ExtrinsicMagneticProperties -->
<g id="node13" class="node">
<title>ExtrinsicMagneticProperties</title>
<g id="a_node13"><a xlink:href="https://w3id.org/emmo/domain/magnetic_materials#EMMO_8a0c8d0a-3dc7-5f3f-ab20-24b38d188827" xlink:title="ExtrinsicMagneticProperties">
<ellipse fill="#ffffcc" stroke="red" cx="428.43" cy="-343.07" rx="155.9" ry="18"/>
<text text-anchor="middle" x="428.43" y="-338.4" font-family="Times,serif" font-size="14.00">ExtrinsicMagneticProperties</text>
</a>
</g>
</g>
<!-- Magnet&#45;&gt;ExtrinsicMagneticProperties -->
<g id="edge12" class="edge">
<title>Magnet&#45;&gt;ExtrinsicMagneticProperties</title>
<path fill="none" stroke="orange" stroke-dasharray="1,5" d="M874.3,-511.12C843.2,-500.39 801.12,-480.93 777.09,-449.07 754.29,-418.85 787.71,-390.59 759.09,-365.82 752.08,-359.76 668.21,-354.02 586.83,-349.83"/>
<polygon fill="orange" stroke="orange" points="587.05,-346.33 576.89,-349.32 586.7,-353.32 587.05,-346.33"/>
<text text-anchor="middle" x="680.71" y="-369.77" font-family="Times,serif" font-size="14.00">hasProperty exactly 1</text>
</g>
<!-- XrayDiffractionData -->
<g id="node14" class="node">
<title>XrayDiffractionData</title>
<g id="a_node14"><a xlink:href="https://w3id.org/emmo/domain/magnetic_materials#EMMO_38684bd3-8137-5af1-9c0d-b32bcf58fefc" xlink:title="XrayDiffractionData">
<ellipse fill="#ffffcc" stroke="red" cx="428.43" cy="-289.07" rx="111.18" ry="18"/>
<text text-anchor="middle" x="428.43" y="-284.4" font-family="Times,serif" font-size="14.00">XrayDiffractionData</text>
</a>
</g>
</g>
<!-- Magnet&#45;&gt;XrayDiffractionData -->
<g id="edge13" class="edge">
<title>Magnet&#45;&gt;XrayDiffractionData</title>
<path fill="none" stroke="orange" stroke-dasharray="1,5" d="M873.76,-511.51C842.34,-501.01 800.1,-481.67 777.09,-449.07 746.17,-405.28 797.49,-367.21 759.09,-329.82 754.97,-325.82 628.37,-311.02 533.29,-300.41"/>
<polygon fill="orange" stroke="orange" points="533.69,-296.94 523.37,-299.31 532.92,-303.89 533.69,-296.94"/>
<text text-anchor="middle" x="680.71" y="-333.77" font-family="Times,serif" font-size="14.00">hasProperty min 0</text>
</g>
<!-- ElectromagneticQuantity -->
<g id="node15" class="node">
<title>ElectromagneticQuantity</title>
<g id="a_node15"><a xlink:href="https://w3id.org/emmo#EMMO_af794e9d_dc7d_4756_83e1_2cd0e2ec864e" xlink:title="ElectromagneticQuantity">
<ellipse fill="#ffffcc" stroke="red" cx="914.58" cy="-19.07" rx="137.49" ry="18"/>
<text text-anchor="middle" x="914.58" y="-14.4" font-family="Times,serif" font-size="14.00">ElectromagneticQuantity</text>
</a>
</g>
</g>
<!-- DemagnetizingFactor&#45;&gt;ElectromagneticQuantity -->
<g id="edge14" class="edge">
<title>DemagnetizingFactor&#45;&gt;ElectromagneticQuantity</title>
<path fill="none" stroke="black" d="M547.87,-19.07C613.5,-19.07 695.71,-19.07 765.55,-19.07"/>
<polygon fill="none" stroke="black" points="765.14,-22.57 775.14,-19.07 765.14,-15.57 765.14,-22.57"/>
<text text-anchor="middle" x="680.71" y="-23.02" font-family="Times,serif" font-size="14.00">isA</text>
</g>
<!-- DimensionlessUnit -->
<g id="node16" class="node">
<title>DimensionlessUnit</title>
<g id="a_node16"><a xlink:href="https://w3id.org/emmo#EMMO_3227b821_26a5_4c7c_9c01_5c24483e0bd0" xlink:title="DimensionlessUnit">
<ellipse fill="#ffffcc" stroke="red" cx="428.43" cy="-127.07" rx="105.92" ry="18"/>
<text text-anchor="middle" x="428.43" y="-122.4" font-family="Times,serif" font-size="14.00">DimensionlessUnit</text>
</a>
</g>
</g>
<!-- DemagnetizingFactor&#45;&gt;DimensionlessUnit -->
<g id="edge15" class="edge">
<title>DemagnetizingFactor&#45;&gt;DimensionlessUnit</title>
<path fill="none" stroke="orange" stroke-dasharray="5,2" d="M353.49,-4.71C277.74,4.96 163.43,5.32 102.7,-64.45 38.42,-138.3 203.19,-141.68 321.12,-135.62"/>
<polygon fill="orange" stroke="orange" points="321.07,-139.12 330.87,-135.09 320.69,-132.14 321.07,-139.12"/>
<text text-anchor="middle" x="155.9" y="-68.4" font-family="Times,serif" font-size="14.00">hasMeasurementUnit some</text>
</g>
<!-- SampleGeometry&#45;&gt;Referent -->
<g id="edge20" class="edge">
<title>SampleGeometry&#45;&gt;Referent</title>
<path fill="none" stroke="black" d="M999.45,-431.41C1049.6,-436.99 1112.28,-443.97 1158.17,-449.07"/>
<polygon fill="none" stroke="black" points="1157.63,-452.53 1167.95,-450.16 1158.4,-445.58 1157.63,-452.53"/>
<text text-anchor="middle" x="1080.94" y="-445.06" font-family="Times,serif" font-size="14.00">isA</text>
</g>
<!-- Property -->
<g id="node19" class="node">
<title>Property</title>
<g id="a_node19"><a xlink:href="https://w3id.org/emmo#EMMO_b7bcff25_ffc3_474e_9ab5_01b1664bd4ba" xlink:title="Property">
<ellipse fill="#ffffcc" stroke="red" cx="1222.05" cy="-402.07" rx="55.42" ry="18"/>
<text text-anchor="middle" x="1222.05" y="-397.4" font-family="Times,serif" font-size="14.00">Property</text>
</a>
</g>
</g>
<!-- SampleGeometry&#45;&gt;Property -->
<g id="edge21" class="edge">
<title>SampleGeometry&#45;&gt;Property</title>
<path fill="none" stroke="black" d="M992.02,-410.72C1016.86,-407.52 1044.58,-404.47 1070.07,-402.82 1097.87,-401.03 1128.61,-400.59 1155.05,-400.7"/>
<polygon fill="none" stroke="black" points="1154.95,-404.2 1164.97,-400.77 1155,-397.2 1154.95,-404.2"/>
<text text-anchor="middle" x="1080.94" y="-406.77" font-family="Times,serif" font-size="14.00">isA</text>
</g>
<!-- GeometricalSize -->
<g id="node20" class="node">
<title>GeometricalSize</title>
<g id="a_node20"><a xlink:href="https://w3id.org/emmo/domain/magnetic_materials#EMMO_0213900b-ab6d-56be-82fb-4db874974de1" xlink:title="GeometricalSize">
<ellipse fill="#ffffcc" stroke="red" cx="428.43" cy="-235.07" rx="93.3" ry="18"/>
<text text-anchor="middle" x="428.43" y="-230.4" font-family="Times,serif" font-size="14.00">GeometricalSize</text>
</a>
</g>
</g>
<!-- SampleGeometry&#45;&gt;GeometricalSize -->
<g id="edge22" class="edge">
<title>SampleGeometry&#45;&gt;GeometricalSize</title>
<path fill="none" stroke="orange" stroke-dasharray="1,5" d="M842.44,-409.56C818.28,-401.81 793.32,-389.29 777.09,-369.07 744.08,-327.96 798.21,-287.16 759.09,-251.82 742.49,-236.83 623.6,-233.9 533.32,-233.88"/>
<polygon fill="orange" stroke="orange" points="533.41,-230.38 523.41,-233.9 533.42,-237.38 533.41,-230.38"/>
<text text-anchor="middle" x="680.71" y="-255.77" font-family="Times,serif" font-size="14.00">hasProperty exactly 1</text>
</g>
<!-- GeometricShape -->
<g id="node21" class="node">
<title>GeometricShape</title>
<g id="a_node21"><a xlink:href="https://w3id.org/emmo/domain/magnetic_materials#EMMO_aa999d91-076f-512a-85a0-c2f751c083b1" xlink:title="GeometricShape">
<ellipse fill="#ffffcc" stroke="red" cx="428.43" cy="-181.07" rx="94.35" ry="18"/>
<text text-anchor="middle" x="428.43" y="-176.4" font-family="Times,serif" font-size="14.00">GeometricShape</text>
</a>
</g>
</g>
<!-- SampleGeometry&#45;&gt;GeometricShape -->
<g id="edge23" class="edge">
<title>SampleGeometry&#45;&gt;GeometricShape</title>
<path fill="none" stroke="orange" stroke-dasharray="1,5" d="M841.67,-409.77C817.58,-402.05 792.86,-389.49 777.09,-369.07 734.36,-313.74 808.98,-261.79 759.09,-212.82 743.05,-197.08 623.69,-188.73 533.17,-184.61"/>
<polygon fill="orange" stroke="orange" points="533.38,-181.11 523.23,-184.17 533.07,-188.1 533.38,-181.11"/>
<text text-anchor="middle" x="680.71" y="-216.77" font-family="Times,serif" font-size="14.00">hasProperty exactly 1</text>
</g>
<!-- ShapeAnisotropy&#45;&gt;DemagnetizingFactor -->
<g id="edge18" class="edge">
<title>ShapeAnisotropy&#45;&gt;DemagnetizingFactor</title>
<path fill="none" stroke="orange" stroke-dasharray="1,5" d="M907.09,-323.93C890.32,-279.91 841.04,-167.32 759.09,-115.82 699.43,-78.33 657.39,-136.05 602.34,-92.07 585.18,-78.37 601.34,-59.96 584.34,-46.07 574.95,-38.4 564.16,-32.58 552.73,-28.19"/>
<polygon fill="orange" stroke="orange" points="554.11,-24.97 543.52,-25.05 551.85,-31.59 554.11,-24.97"/>
<text text-anchor="middle" x="680.71" y="-119.77" font-family="Times,serif" font-size="14.00">hasProperty exactly 1</text>
</g>
<!-- ShapeAnisotropy&#45;&gt;Referent -->
<g id="edge16" class="edge">
<title>ShapeAnisotropy&#45;&gt;Referent</title>
<path fill="none" stroke="black" d="M1009.44,-345.45C1038.65,-350.72 1069.11,-361.1 1091.82,-380.82 1109.1,-395.83 1092.7,-413.88 1109.82,-429.07 1122.74,-440.54 1139.72,-447.34 1156.5,-451.31"/>
<polygon fill="none" stroke="black" points="1155.48,-454.67 1165.98,-453.23 1156.88,-447.81 1155.48,-454.67"/>
<text text-anchor="middle" x="1080.94" y="-384.77" font-family="Times,serif" font-size="14.00">isA</text>
</g>
<!-- MagneticAnisotropy -->
<g id="node17" class="node">
<title>MagneticAnisotropy</title>
<g id="a_node17"><a xlink:href="https://w3id.org/emmo/domain/magnetic_materials#EMMO_3a63baaf-4d7c-5ea5-93ce-9c8917a3290c" xlink:title="MagneticAnisotropy">
<ellipse fill="#ffffcc" stroke="red" cx="1222.05" cy="-322.07" rx="112.24" ry="18"/>
<text text-anchor="middle" x="1222.05" y="-317.4" font-family="Times,serif" font-size="14.00">MagneticAnisotropy</text>
</a>
</g>
</g>
<!-- ShapeAnisotropy&#45;&gt;MagneticAnisotropy -->
<g id="edge17" class="edge">
<title>ShapeAnisotropy&#45;&gt;MagneticAnisotropy</title>
<path fill="none" stroke="black" d="M991.23,-330.82C1016.27,-327.59 1044.31,-324.48 1070.07,-322.82 1079.28,-322.23 1088.82,-321.78 1098.41,-321.46"/>
<polygon fill="none" stroke="black" points="1098.28,-324.96 1108.17,-321.17 1098.08,-317.96 1098.28,-324.96"/>
<text text-anchor="middle" x="1080.94" y="-326.77" font-family="Times,serif" font-size="14.00">isA</text>
</g>
<!-- ShapeAnisotropyConstant -->
<g id="node18" class="node">
<title>ShapeAnisotropyConstant</title>
<g id="a_node18"><a xlink:href="https://w3id.org/emmo/domain/magnetic_materials#EMMO_ac6edd90-c273-5203-836b-82462863f2c8" xlink:title="ShapeAnisotropyConstant">
<ellipse fill="#ffffcc" stroke="red" cx="428.43" cy="-73.07" rx="141.7" ry="18"/>
<text text-anchor="middle" x="428.43" y="-68.4" font-family="Times,serif" font-size="14.00">ShapeAnisotropyConstant</text>
</a>
</g>
</g>
<!-- ShapeAnisotropy&#45;&gt;ShapeAnisotropyConstant -->
<g id="edge19" class="edge">
<title>ShapeAnisotropy&#45;&gt;ShapeAnisotropyConstant</title>
<path fill="none" stroke="orange" stroke-dasharray="1,5" d="M909.58,-323.68C897.43,-272.92 855.72,-130.92 759.09,-74.82 724.94,-55 631.86,-56.03 553.28,-61.2"/>
<polygon fill="orange" stroke="orange" points="553.04,-57.71 543.31,-61.89 553.52,-64.69 553.04,-57.71"/>
<text text-anchor="middle" x="680.71" y="-78.77" font-family="Times,serif" font-size="14.00">hasProperty exactly 1</text>
</g>
<!-- key1 -->
<g id="node22" class="node">
<title>key1</title>
<text text-anchor="start" x="482.06" y="-688.27" font-family="Times,serif" font-weight="bold" font-size="14.00">isA</text>
<text text-anchor="start" x="350.81" y="-666.02" font-family="Times,serif" font-size="14.00">hasMeasurementUnit</text>
<text text-anchor="start" x="410.06" y="-645.77" font-family="Times,serif" font-weight="bold" font-size="14.00">hasProperty</text>
<text text-anchor="start" x="389.81" y="-624.52" font-family="Times,serif" font-weight="bold" font-size="14.00">hasSpatialPart</text>
</g>
<!-- key2 -->
<g id="node23" class="node">
<title>key2</title>
<text text-anchor="start" x="912.33" y="-686.27" font-family="Times,serif" font-size="14.00"> </text>
<text text-anchor="start" x="912.33" y="-665.02" font-family="Times,serif" font-size="14.00"> </text>
<text text-anchor="start" x="912.33" y="-643.77" font-family="Times,serif" font-size="14.00"> </text>
<text text-anchor="start" x="912.33" y="-622.52" font-family="Times,serif" font-size="14.00"> </text>
</g>
<!-- key1&#45;&gt;key2 -->
<g id="edge24" class="edge">
<title>key1:e&#45;&gt;key2:w</title>
<path fill="none" stroke="black" d="M509.06,-691.95C683.13,-691.95 729.46,-690.99 898.04,-690.95"/>
<polygon fill="none" stroke="black" points="897.81,-694.45 907.81,-690.95 897.81,-687.45 897.81,-694.45"/>
</g>
<!-- key1&#45;&gt;key2 -->
<g id="edge25" class="edge">
<title>key1:e&#45;&gt;key2:w</title>
<path fill="none" stroke="orange" stroke-dasharray="5,2" d="M509.06,-670.7C683.13,-670.7 729.46,-669.74 898.04,-669.7"/>
<polygon fill="orange" stroke="orange" points="897.81,-673.2 907.81,-669.7 897.81,-666.2 897.81,-673.2"/>
</g>
<!-- key1&#45;&gt;key2 -->
<g id="edge26" class="edge">
<title>key1:e&#45;&gt;key2:w</title>
<path fill="none" stroke="orange" stroke-dasharray="1,5" d="M509.06,-649.45C683.13,-649.45 729.46,-648.49 898.04,-648.45"/>
<polygon fill="orange" stroke="orange" points="897.81,-651.95 907.81,-648.45 897.81,-644.95 897.81,-651.95"/>
</g>
<!-- key1&#45;&gt;key2 -->
<g id="edge27" class="edge">
<title>key1:e&#45;&gt;key2:w</title>
<path fill="none" stroke="darkgreen" d="M509.06,-628.2C683.13,-628.2 729.46,-627.24 898.04,-627.2"/>
<polygon fill="darkgreen" stroke="darkgreen" points="897.81,-630.7 907.81,-627.2 897.81,-623.7 897.81,-630.7"/>
</g>
</g>
</svg>
