<?xml version="1.0" encoding="UTF-8" standalone="no"?>
<!DOCTYPE svg PUBLIC "-//W3C//DTD SVG 1.1//EN"
 "http://www.w3.org/Graphics/SVG/1.1/DTD/svg11.dtd">
<!-- Generated by graphviz version 12.2.1 (20250203.1708)
 -->
<!-- Pages: 1 -->
<svg width="1009pt" height="526pt"
 viewBox="0.00 0.00 1008.73 525.78" xmlns="http://www.w3.org/2000/svg" xmlns:xlink="http://www.w3.org/1999/xlink">
<g id="graph0" class="graph" transform="scale(1 1) rotate(0) translate(4 521.78)">
<polygon fill="white" stroke="none" points="-4,4 -4,-521.78 1004.73,-521.78 1004.73,4 -4,4"/>
<!-- CrystallineMagneticMaterial -->
<g id="node1" class="node">
<title>CrystallineMagneticMaterial</title>
<g id="a_node1"><a xlink:href="https://w3id.org/emmo/domain/magnetic_materials#EMMO_aaa107b8-4dd9-5fc8-b135-a604a0cb38b1" xlink:title="CrystallineMagneticMaterial">
<ellipse fill="#ffffcc" stroke="black" stroke-width="2" cx="155.38" cy="-409.9" rx="155.38" ry="18"/>
<text text-anchor="middle" x="155.38" y="-405.23" font-family="Times,serif" font-size="14.00">CrystallineMagneticMaterial</text>
</a>
</g>
</g>
<!-- GranularStructure -->
<g id="node2" class="node">
<title>GranularStructure</title>
<g id="a_node2"><a xlink:href="https://w3id.org/emmo/domain/magnetic_materials#EMMO_75b995e0-2bac-5812-a7f6-f8c1731d1d5c" xlink:title="GranularStructure">
<ellipse fill="#ffffcc" stroke="red" cx="607.85" cy="-355.9" rx="104.35" ry="18"/>
<text text-anchor="middle" x="607.85" y="-351.23" font-family="Times,serif" font-size="14.00">GranularStructure</text>
</a>
</g>
</g>
<!-- CrystallineMagneticMaterial&#45;&gt;GranularStructure -->
<g id="edge1" class="edge">
<title>CrystallineMagneticMaterial&#45;&gt;GranularStructure</title>
<path fill="none" stroke="black" d="M264.87,-396.44C286.06,-393.83 308.1,-391.14 328.76,-388.65 388.57,-381.44 455.65,-373.54 508.94,-367.3"/>
<polygon fill="none" stroke="black" points="509.06,-370.81 518.59,-366.17 508.25,-363.86 509.06,-370.81"/>
<text text-anchor="middle" x="407.13" y="-392.6" font-family="Times,serif" font-size="14.00">isA</text>
</g>
<!-- MagneticMaterial -->
<g id="node3" class="node">
<title>MagneticMaterial</title>
<g id="a_node3"><a xlink:href="https://w3id.org/emmo/domain/magnetic_materials#EMMO_c5ca93ce-ad27-5f4a-95ef-aca0990c6937" xlink:title="MagneticMaterial">
<ellipse fill="#ffffcc" stroke="red" cx="607.85" cy="-409.9" rx="100.66" ry="18"/>
<text text-anchor="middle" x="607.85" y="-405.23" font-family="Times,serif" font-size="14.00">MagneticMaterial</text>
</a>
</g>
</g>
<!-- CrystallineMagneticMaterial&#45;&gt;MagneticMaterial -->
<g id="edge2" class="edge">
<title>CrystallineMagneticMaterial&#45;&gt;MagneticMaterial</title>
<path fill="none" stroke="black" d="M311.72,-409.9C372.17,-409.9 440.09,-409.9 495.51,-409.9"/>
<polygon fill="none" stroke="black" points="495.27,-413.4 505.27,-409.9 495.27,-406.4 495.27,-413.4"/>
<text text-anchor="middle" x="407.13" y="-413.85" font-family="Times,serif" font-size="14.00">isA</text>
</g>
<!-- Referent -->
<g id="node4" class="node">
<title>Referent</title>
<g id="a_node4"><a xlink:href="https://w3id.org/emmo#EMMO_6f5af708_f825_4feb_a0d1_a8d813d3022b" xlink:title="Referent">
<ellipse fill="#ffffcc" stroke="red" cx="885.34" cy="-382.9" rx="54.89" ry="18"/>
<text text-anchor="middle" x="885.34" y="-378.23" font-family="Times,serif" font-size="14.00">Referent</text>
</a>
</g>
</g>
<!-- GranularStructure&#45;&gt;Referent -->
<g id="edge3" class="edge">
<title>GranularStructure&#45;&gt;Referent</title>
<path fill="none" stroke="black" d="M709.79,-360.23C723.96,-361.17 738.33,-362.3 751.95,-363.65 775.77,-366.03 801.88,-369.61 824.56,-373.04"/>
<polygon fill="none" stroke="black" points="823.83,-376.47 834.24,-374.53 824.89,-369.55 823.83,-376.47"/>
<text text-anchor="middle" x="741.07" y="-367.6" font-family="Times,serif" font-size="14.00">isA</text>
</g>
<!-- CrystallineMaterial -->
<g id="node5" class="node">
<title>CrystallineMaterial</title>
<g id="a_node5"><a xlink:href="https://w3id.org/emmo#EMMO_f1025834_0cd2_42a1_bfeb_13bec41c8655" xlink:title="CrystallineMaterial">
<ellipse fill="#ffffcc" stroke="red" cx="885.34" cy="-322.9" rx="108.55" ry="18"/>
<text text-anchor="middle" x="885.34" y="-318.23" font-family="Times,serif" font-size="14.00">CrystallineMaterial</text>
</a>
</g>
</g>
<!-- GranularStructure&#45;&gt;CrystallineMaterial -->
<g id="edge4" class="edge">
<title>GranularStructure&#45;&gt;CrystallineMaterial</title>
<path fill="none" stroke="black" d="M693.05,-345.21C705.5,-343.66 718.18,-342.1 730.2,-340.65 747.39,-338.58 765.67,-336.43 783.4,-334.37"/>
<polygon fill="none" stroke="black" points="783.63,-337.87 793.16,-333.24 782.82,-330.92 783.63,-337.87"/>
<text text-anchor="middle" x="741.07" y="-344.6" font-family="Times,serif" font-size="14.00">isA</text>
</g>
<!-- XrayDiffractionData -->
<g id="node6" class="node">
<title>XrayDiffractionData</title>
<g id="a_node6"><a xlink:href="https://w3id.org/emmo/domain/magnetic_materials#EMMO_38684bd3-8137-5af1-9c0d-b32bcf58fefc" xlink:title="XrayDiffractionData">
<ellipse fill="#ffffcc" stroke="red" cx="155.38" cy="-184.9" rx="111.18" ry="18"/>
<text text-anchor="middle" x="155.38" y="-180.23" font-family="Times,serif" font-size="14.00">XrayDiffractionData</text>
</a>
</g>
</g>
<!-- GranularStructure&#45;&gt;XrayDiffractionData -->
<g id="edge5" class="edge">
<title>GranularStructure&#45;&gt;XrayDiffractionData</title>
<path fill="none" stroke="orange" stroke-dasharray="1,5" d="M600.2,-337.57C585.84,-301.06 548.05,-219.99 485.51,-187.65 448.3,-168.42 345.77,-170.31 264.93,-175.44"/>
<polygon fill="orange" stroke="orange" points="264.94,-171.93 255.19,-176.09 265.4,-178.92 264.94,-171.93"/>
<text text-anchor="middle" x="407.13" y="-191.6" font-family="Times,serif" font-size="14.00">hasProperty min 0</text>
</g>
<!-- GrainSizeDistribution -->
<g id="node7" class="node">
<title>GrainSizeDistribution</title>
<g id="a_node7"><a xlink:href="https://w3id.org/emmo/domain/magnetic_materials#EMMO_ada88738-c901-5d83-884b-5f84d27ce527" xlink:title="GrainSizeDistribution">
<ellipse fill="#ffffcc" stroke="red" cx="155.38" cy="-130.9" rx="120.65" ry="18"/>
<text text-anchor="middle" x="155.38" y="-126.23" font-family="Times,serif" font-size="14.00">GrainSizeDistribution</text>
</a>
</g>
</g>
<!-- GranularStructure&#45;&gt;GrainSizeDistribution -->
<g id="edge6" class="edge">
<title>GranularStructure&#45;&gt;GrainSizeDistribution</title>
<path fill="none" stroke="orange" stroke-dasharray="1,5" d="M602.29,-337.56C590.82,-295.82 556.51,-194.03 485.51,-150.65 412.59,-106.11 312.81,-106.79 242.29,-115.11"/>
<polygon fill="orange" stroke="orange" points="242.21,-111.59 232.73,-116.31 243.09,-118.54 242.21,-111.59"/>
<text text-anchor="middle" x="407.13" y="-154.6" font-family="Times,serif" font-size="14.00">hasProperty exactly 1</text>
</g>
<!-- CrystalStructure -->
<g id="node8" class="node">
<title>CrystalStructure</title>
<g id="a_node8"><a xlink:href="https://w3id.org/emmo/domain/magnetic_materials#EMMO_2c96e798-57dc-5c12-ad10-f3ec261549d3" xlink:title="CrystalStructure">
<ellipse fill="#ffffcc" stroke="red" cx="155.38" cy="-76.9" rx="95.93" ry="18"/>
<text text-anchor="middle" x="155.38" y="-72.23" font-family="Times,serif" font-size="14.00">CrystalStructure</text>
</a>
</g>
</g>
<!-- GranularStructure&#45;&gt;CrystalStructure -->
<g id="edge7" class="edge">
<title>GranularStructure&#45;&gt;CrystalStructure</title>
<path fill="none" stroke="orange" stroke-dasharray="1,5" d="M604.91,-337.54C598.52,-287.49 573.25,-148.52 485.51,-89.65 449.24,-65.32 339.1,-65.49 256.14,-69.58"/>
<polygon fill="orange" stroke="orange" points="256.2,-66.07 246.39,-70.08 256.56,-73.06 256.2,-66.07"/>
<text text-anchor="middle" x="407.13" y="-93.6" font-family="Times,serif" font-size="14.00">hasProperty exactly 1</text>
</g>
<!-- Grain -->
<g id="node9" class="node">
<title>Grain</title>
<g id="a_node9"><a xlink:href="https://w3id.org/emmo/domain/magnetic_materials#EMMO_b0f0e57e-464d-562f-80ec-b216c92d5e88" xlink:title="Grain">
<ellipse fill="#ffffcc" stroke="red" cx="155.38" cy="-22.9" rx="39.11" ry="18"/>
<text text-anchor="middle" x="155.38" y="-18.23" font-family="Times,serif" font-size="14.00">Grain</text>
</a>
</g>
</g>
<!-- GranularStructure&#45;&gt;Grain -->
<g id="edge8" class="edge">
<title>GranularStructure&#45;&gt;Grain</title>
<path fill="none" stroke="darkgreen" d="M606.03,-337.67C602.49,-282.87 583.75,-118.96 485.51,-46.65 401.43,15.22 270.3,1.05 201.7,-12.26"/>
<polygon fill="darkgreen" stroke="darkgreen" points="201.02,-8.83 191.92,-14.25 202.42,-15.69 201.02,-8.83"/>
<text text-anchor="middle" x="407.13" y="-50.6" font-family="Times,serif" font-size="14.00">hasSpatialPart min 0</text>
</g>
<!-- MagneticMaterial&#45;&gt;Referent -->
<g id="edge9" class="edge">
<title>MagneticMaterial&#45;&gt;Referent</title>
<path fill="none" stroke="black" d="M697.15,-401.25C737.52,-397.29 784.41,-392.7 821.17,-389.09"/>
<polygon fill="none" stroke="black" points="821.11,-392.62 830.72,-388.16 820.43,-385.65 821.11,-392.62"/>
<text text-anchor="middle" x="741.07" y="-401.16" font-family="Times,serif" font-size="14.00">isA</text>
</g>
<!-- MaterialByStructure -->
<g id="node10" class="node">
<title>MaterialByStructure</title>
<g id="a_node10"><a xlink:href="https://w3id.org/emmo#EMMO_f00fb163_48c9_4c59_b6c2_4205c082aa54" xlink:title="MaterialByStructure">
<ellipse fill="#ffffcc" stroke="red" cx="885.34" cy="-442.9" rx="115.39" ry="18"/>
<text text-anchor="middle" x="885.34" y="-438.23" font-family="Times,serif" font-size="14.00">MaterialByStructure</text>
</a>
</g>
</g>
<!-- MagneticMaterial&#45;&gt;MaterialByStructure -->
<g id="edge10" class="edge">
<title>MagneticMaterial&#45;&gt;MaterialByStructure</title>
<path fill="none" stroke="black" d="M692.63,-419.94C720.56,-423.28 752.01,-427.05 781.24,-430.55"/>
<polygon fill="none" stroke="black" points="780.47,-433.99 790.81,-431.7 781.3,-427.04 780.47,-433.99"/>
<text text-anchor="middle" x="741.07" y="-430.35" font-family="Times,serif" font-size="14.00">isA</text>
</g>
<!-- Density -->
<g id="node11" class="node">
<title>Density</title>
<g id="a_node11"><a xlink:href="https://w3id.org/emmo#EMMO_06448f64_8db6_4304_8b2c_e785dba82044" xlink:title="Density">
<ellipse fill="#ffffcc" stroke="red" cx="155.38" cy="-352.9" rx="49.63" ry="18"/>
<text text-anchor="middle" x="155.38" y="-348.23" font-family="Times,serif" font-size="14.00">Density</text>
</a>
</g>
</g>
<!-- MagneticMaterial&#45;&gt;Density -->
<g id="edge11" class="edge">
<title>MagneticMaterial&#45;&gt;Density</title>
<path fill="none" stroke="orange" stroke-dasharray="1,5" d="M531.14,-397.95C521.22,-394.21 511.68,-389.31 503.51,-382.9 490.28,-372.53 499.94,-358.25 485.51,-349.65 441.19,-323.25 295.65,-335.71 213.73,-345.34"/>
<polygon fill="orange" stroke="orange" points="213.38,-341.86 203.87,-346.53 214.21,-348.81 213.38,-341.86"/>
<text text-anchor="middle" x="407.13" y="-353.6" font-family="Times,serif" font-size="14.00">hasProperty exactly 1</text>
</g>
<!-- ChemicalComposition -->
<g id="node12" class="node">
<title>ChemicalComposition</title>
<g id="a_node12"><a xlink:href="https://w3id.org/emmo#EMMO_7efd64d1_05a1_49cd_a7f0_783ca050d4f3" xlink:title="ChemicalComposition">
<ellipse fill="#ffc880" stroke="red" cx="155.38" cy="-292.9" rx="120.13" ry="18"/>
<text text-anchor="middle" x="155.38" y="-288.23" font-family="Times,serif" font-size="14.00">ChemicalComposition</text>
</a>
</g>
</g>
<!-- MagneticMaterial&#45;&gt;ChemicalComposition -->
<g id="edge12" class="edge">
<title>MagneticMaterial&#45;&gt;ChemicalComposition</title>
<path fill="none" stroke="orange" stroke-dasharray="1,5" d="M527.52,-398.81C518.61,-394.91 510.31,-389.74 503.51,-382.9 480.77,-360.06 510.36,-333.17 485.51,-312.65 454.51,-287.08 358.52,-283.61 278.15,-285.7"/>
<polygon fill="orange" stroke="orange" points="278.33,-282.19 268.43,-285.99 278.53,-289.19 278.33,-282.19"/>
<text text-anchor="middle" x="407.13" y="-316.6" font-family="Times,serif" font-size="14.00">hasProperty exactly 1</text>
</g>
<!-- IntrinsicMagneticProperties -->
<g id="node13" class="node">
<title>IntrinsicMagneticProperties</title>
<g id="a_node13"><a xlink:href="https://w3id.org/emmo/domain/magnetic_materials#EMMO_af8d3fb8-20fe-5f9f-9f85-fd298e26ad7e" xlink:title="IntrinsicMagneticProperties">
<ellipse fill="#ffffcc" stroke="red" cx="155.38" cy="-238.9" rx="152.75" ry="18"/>
<text text-anchor="middle" x="155.38" y="-234.23" font-family="Times,serif" font-size="14.00">IntrinsicMagneticProperties</text>
</a>
</g>
</g>
<!-- MagneticMaterial&#45;&gt;IntrinsicMagneticProperties -->
<g id="edge13" class="edge">
<title>MagneticMaterial&#45;&gt;IntrinsicMagneticProperties</title>
<path fill="none" stroke="orange" stroke-dasharray="1,5" d="M526.09,-399.1C517.58,-395.13 509.77,-389.87 503.51,-382.9 467.66,-343.05 524.8,-300.11 485.51,-263.65 418.68,-201.65 307.81,-207.15 233.44,-220.2"/>
<polygon fill="orange" stroke="orange" points="232.98,-216.73 223.78,-221.99 234.25,-223.61 232.98,-216.73"/>
<text text-anchor="middle" x="407.13" y="-267.6" font-family="Times,serif" font-size="14.00">hasProperty exactly 1</text>
</g>
<!-- key1 -->
<g id="node14" class="node">
<title>key1</title>
<text text-anchor="start" x="189.5" y="-499.48" font-family="Times,serif" font-weight="bold" font-size="14.00">isA</text>
<text text-anchor="start" x="117.5" y="-478.23" font-family="Times,serif" font-weight="bold" font-size="14.00">hasProperty</text>
<text text-anchor="start" x="97.25" y="-456.98" font-family="Times,serif" font-weight="bold" font-size="14.00">hasSpatialPart</text>
</g>
<!-- key2 -->
<g id="node15" class="node">
<title>key2</title>
<text text-anchor="start" x="605.6" y="-498.48" font-family="Times,serif" font-size="14.00"> </text>
<text text-anchor="start" x="605.6" y="-477.23" font-family="Times,serif" font-size="14.00"> </text>
<text text-anchor="start" x="605.6" y="-455.98" font-family="Times,serif" font-size="14.00"> </text>
</g>
<!-- key1&#45;&gt;key2 -->
<g id="edge14" class="edge">
<title>key1:e&#45;&gt;key2:w</title>
<path fill="none" stroke="black" d="M216.5,-503.15C384.25,-503.15 429.01,-503.15 591.23,-503.15"/>
<polygon fill="none" stroke="black" points="591.09,-506.65 601.09,-503.15 591.09,-499.65 591.09,-506.65"/>
</g>
<!-- key1&#45;&gt;key2 -->
<g id="edge15" class="edge">
<title>key1:e&#45;&gt;key2:w</title>
<path fill="none" stroke="orange" stroke-dasharray="1,5" d="M216.5,-481.9C384.25,-481.9 429.01,-481.9 591.23,-481.9"/>
<polygon fill="orange" stroke="orange" points="591.09,-485.4 601.09,-481.9 591.09,-478.4 591.09,-485.4"/>
</g>
<!-- key1&#45;&gt;key2 -->
<g id="edge16" class="edge">
<title>key1:e&#45;&gt;key2:w</title>
<path fill="none" stroke="darkgreen" d="M216.5,-460.65C384.25,-460.65 429.01,-460.65 591.23,-460.65"/>
<polygon fill="darkgreen" stroke="darkgreen" points="591.09,-464.15 601.09,-460.65 591.09,-457.15 591.09,-464.15"/>
</g>
</g>
</svg>
