<?xml version="1.0" encoding="UTF-8" standalone="no"?>
<!DOCTYPE svg PUBLIC "-//W3C//DTD SVG 1.1//EN"
 "http://www.w3.org/Graphics/SVG/1.1/DTD/svg11.dtd">
<!-- Generated by graphviz version 12.2.1 (20250203.1708)
 -->
<!-- Pages: 1 -->
<svg width="737pt" height="1518pt"
 viewBox="0.00 0.00 737.27 1518.00" xmlns="http://www.w3.org/2000/svg" xmlns:xlink="http://www.w3.org/1999/xlink">
<g id="graph0" class="graph" transform="scale(1 1) rotate(0) translate(4 1514)">
<polygon fill="white" stroke="none" points="-4,4 -4,-1514 733.27,-1514 733.27,4 -4,4"/>
<!-- ExtrinsicMagneticProperties -->
<g id="node1" class="node">
<title>ExtrinsicMagneticProperties</title>
<g id="a_node1"><a xlink:href="https://w3id.org/emmo/domain/magnetic_materials#EMMO_8a0c8d0a-3dc7-5f3f-ab20-24b38d188827" xlink:title="ExtrinsicMagneticProperties">
<ellipse fill="#ffffcc" stroke="black" stroke-width="2" cx="457.64" cy="-1330" rx="155.9" ry="18"/>
<text text-anchor="middle" x="457.64" y="-1325.33" font-family="Times,serif" font-size="14.00">ExtrinsicMagneticProperties</text>
</a>
</g>
</g>
<!-- RelativePermeability -->
<g id="node2" class="node">
<title>RelativePermeability</title>
<g id="a_node2"><a xlink:href="https://w3id.org/emmo#EMMO_593ecc7c_250d_4e4d_8957_0170f3cc2154" xlink:title="RelativePermeability">
<ellipse fill="#ffffcc" stroke="red" cx="457.64" cy="-1258" rx="115.92" ry="18"/>
<text text-anchor="middle" x="457.64" y="-1253.33" font-family="Times,serif" font-size="14.00">RelativePermeability</text>
</a>
</g>
</g>
<!-- ExtrinsicMagneticProperties&#45;&gt;RelativePermeability -->
<g id="edge1" class="edge">
<title>ExtrinsicMagneticProperties&#45;&gt;RelativePermeability</title>
<path fill="none" stroke="orange" stroke-dasharray="1,5" d="M457.64,-1311.08C457.64,-1303.92 457.64,-1295.57 457.64,-1287.66"/>
<polygon fill="orange" stroke="orange" points="461.14,-1287.68 457.64,-1277.68 454.14,-1287.68 461.14,-1287.68"/>
<text text-anchor="middle" x="446.01" y="-1289.33" font-family="Times,serif" font-size="14.00">hasProperty min 0</text>
</g>
<!-- DemagnetizingFactor -->
<g id="node3" class="node">
<title>DemagnetizingFactor</title>
<g id="a_node3"><a xlink:href="https://w3id.org/emmo/domain/magnetic_materials#EMMO_0f2b5cc9-d00a-5030-8448-99ba6b7dfd1e" xlink:title="DemagnetizingFactor">
<ellipse fill="#ffffcc" stroke="red" cx="457.64" cy="-1204" rx="119.08" ry="18"/>
<text text-anchor="middle" x="457.64" y="-1199.33" font-family="Times,serif" font-size="14.00">DemagnetizingFactor</text>
</a>
</g>
</g>
<!-- ExtrinsicMagneticProperties&#45;&gt;DemagnetizingFactor -->
<g id="edge2" class="edge">
<title>ExtrinsicMagneticProperties&#45;&gt;DemagnetizingFactor</title>
<path fill="none" stroke="orange" stroke-dasharray="1,5" d="M306.98,-1335.22C211.21,-1333.19 113.37,-1317.76 160.42,-1258.38 205.23,-1201.83 287.69,-1190.35 354.4,-1191.83"/>
<polygon fill="orange" stroke="orange" points="354.19,-1195.32 364.3,-1192.16 354.42,-1188.33 354.19,-1195.32"/>
<text text-anchor="middle" x="180.63" y="-1262.33" font-family="Times,serif" font-size="14.00">hasProperty min 0</text>
</g>
<!-- AbsolutePermeability -->
<g id="node4" class="node">
<title>AbsolutePermeability</title>
<g id="a_node4"><a xlink:href="https://w3id.org/emmo/domain/magnetic_materials#EMMO_98f7a685-fa5a-54f1-8504-f398047f3ab6" xlink:title="AbsolutePermeability">
<ellipse fill="#ffffcc" stroke="red" cx="457.64" cy="-1150" rx="118.55" ry="18"/>
<text text-anchor="middle" x="457.64" y="-1145.33" font-family="Times,serif" font-size="14.00">AbsolutePermeability</text>
</a>
</g>
</g>
<!-- ExtrinsicMagneticProperties&#45;&gt;AbsolutePermeability -->
<g id="edge3" class="edge">
<title>ExtrinsicMagneticProperties&#45;&gt;AbsolutePermeability</title>
<path fill="none" stroke="orange" stroke-dasharray="1,5" d="M347.3,-1316.61C239.19,-1299.12 98.93,-1262.02 160.42,-1191.38 210.89,-1133.4 301.9,-1128.51 369.97,-1134.77"/>
<polygon fill="orange" stroke="orange" points="369.3,-1138.22 379.6,-1135.75 370.01,-1131.25 369.3,-1138.22"/>
<text text-anchor="middle" x="180.63" y="-1195.33" font-family="Times,serif" font-size="14.00">hasProperty min 0</text>
</g>
<!-- MagneticHysteresisProperties -->
<g id="node5" class="node">
<title>MagneticHysteresisProperties</title>
<g id="a_node5"><a xlink:href="https://w3id.org/emmo/domain/magnetic_materials#EMMO_14a12902-9845-5be6-bd0b-511dcea31985" xlink:title="MagneticHysteresisProperties">
<ellipse fill="#ffffcc" stroke="red" cx="457.64" cy="-1096" rx="164.32" ry="18"/>
<text text-anchor="middle" x="457.64" y="-1091.33" font-family="Times,serif" font-size="14.00">MagneticHysteresisProperties</text>
</a>
</g>
</g>
<!-- ExtrinsicMagneticProperties&#45;&gt;MagneticHysteresisProperties -->
<g id="edge4" class="edge">
<title>ExtrinsicMagneticProperties&#45;&gt;MagneticHysteresisProperties</title>
<path fill="none" stroke="orange" stroke-dasharray="1,5" d="M312.83,-1322.88C250.89,-1311.55 184.62,-1286.45 148.42,-1232.62 99.21,-1159.44 214.32,-1125.1 317.8,-1109.21"/>
<polygon fill="orange" stroke="orange" points="318.18,-1112.69 327.56,-1107.77 317.15,-1105.77 318.18,-1112.69"/>
<text text-anchor="middle" x="180.63" y="-1219.33" font-family="Times,serif" font-size="14.00">hasProperty exactly 1</text>
</g>
<!-- LoopSquarenessFactorExternal -->
<g id="node8" class="node">
<title>LoopSquarenessFactorExternal</title>
<g id="a_node8"><a xlink:href="https://w3id.org/emmo/domain/magnetic_materials#EMMO_8108b720-e94e-5201-86e6-1434344cffca" xlink:title="LoopSquarenessFactorExternal">
<ellipse fill="#ffffcc" stroke="red" cx="457.64" cy="-899" rx="169.06" ry="18"/>
<text text-anchor="middle" x="457.64" y="-894.33" font-family="Times,serif" font-size="14.00">LoopSquarenessFactorExternal</text>
</a>
</g>
</g>
<!-- MagneticHysteresisProperties&#45;&gt;LoopSquarenessFactorExternal -->
<g id="edge5" class="edge">
<title>MagneticHysteresisProperties&#45;&gt;LoopSquarenessFactorExternal</title>
<path fill="none" stroke="orange" stroke-dasharray="1,5" d="M457.64,-1077.58C457.64,-1043.39 457.64,-969.88 457.64,-928.63"/>
<polygon fill="orange" stroke="orange" points="461.14,-928.69 457.64,-918.69 454.14,-928.69 461.14,-928.69"/>
<text text-anchor="middle" x="446.01" y="-992.83" font-family="Times,serif" font-size="14.00">hasProperty min 0</text>
</g>
<!-- CoercivityHc -->
<g id="node9" class="node">
<title>CoercivityHc</title>
<g id="a_node9"><a xlink:href="https://w3id.org/emmo/domain/magnetic_materials#EMMO_0d67d6c5-a8a7-57d4-930a-e99412baa2c2" xlink:title="CoercivityHc">
<ellipse fill="#ffffcc" stroke="red" cx="457.64" cy="-720" rx="75.94" ry="18"/>
<text text-anchor="middle" x="457.64" y="-715.33" font-family="Times,serif" font-size="14.00">CoercivityHc</text>
</a>
</g>
</g>
<!-- MagneticHysteresisProperties&#45;&gt;CoercivityHc -->
<g id="edge6" class="edge">
<title>MagneticHysteresisProperties&#45;&gt;CoercivityHc</title>
<path fill="none" stroke="orange" stroke-dasharray="1,5" d="M418.24,-1078.09C312.54,-1027.76 37.94,-880.61 148.42,-756.38 207.92,-689.47 319.87,-693.92 391.5,-705.39"/>
<polygon fill="orange" stroke="orange" points="390.69,-708.8 401.14,-707.03 391.87,-701.9 390.69,-708.8"/>
<text text-anchor="middle" x="180.63" y="-760.33" font-family="Times,serif" font-size="14.00">hasProperty exactly 1</text>
</g>
<!-- LoopSquarenessFactorInternal -->
<g id="node10" class="node">
<title>LoopSquarenessFactorInternal</title>
<g id="a_node10"><a xlink:href="https://w3id.org/emmo/domain/magnetic_materials#EMMO_4746f629-2b2f-5d43-b698-a81519eb2b2b" xlink:title="LoopSquarenessFactorInternal">
<ellipse fill="#ffffcc" stroke="red" cx="457.64" cy="-666" rx="165.9" ry="18"/>
<text text-anchor="middle" x="457.64" y="-661.33" font-family="Times,serif" font-size="14.00">LoopSquarenessFactorInternal</text>
</a>
</g>
</g>
<!-- MagneticHysteresisProperties&#45;&gt;LoopSquarenessFactorInternal -->
<g id="edge7" class="edge">
<title>MagneticHysteresisProperties&#45;&gt;LoopSquarenessFactorInternal</title>
<path fill="none" stroke="orange" stroke-dasharray="1,5" d="M376.94,-1112.08C308.38,-1120.53 212.97,-1118.99 160.42,-1059.62 103.76,-995.61 211.54,-747.98 277.01,-693 283.59,-687.47 290.81,-682.81 298.45,-678.89"/>
<polygon fill="orange" stroke="orange" points="299.72,-682.16 307.34,-674.8 296.8,-675.8 299.72,-682.16"/>
<text text-anchor="middle" x="180.63" y="-1046.33" font-family="Times,serif" font-size="14.00">hasProperty min 0</text>
</g>
<!-- CoercivityBHcExternal -->
<g id="node11" class="node">
<title>CoercivityBHcExternal</title>
<g id="a_node11"><a xlink:href="https://w3id.org/emmo/domain/magnetic_materials#EMMO_a4bc4536-f381-5bcd-b6ca-34fb1a913efd" xlink:title="CoercivityBHcExternal">
<ellipse fill="#ffffcc" stroke="red" cx="457.64" cy="-612" rx="126.44" ry="18"/>
<text text-anchor="middle" x="457.64" y="-607.33" font-family="Times,serif" font-size="14.00">CoercivityBHcExternal</text>
</a>
</g>
</g>
<!-- MagneticHysteresisProperties&#45;&gt;CoercivityBHcExternal -->
<g id="edge8" class="edge">
<title>MagneticHysteresisProperties&#45;&gt;CoercivityBHcExternal</title>
<path fill="none" stroke="orange" stroke-dasharray="1,5" d="M307.96,-1103.74C253.15,-1098.16 195.92,-1080.77 160.42,-1037.62 101.79,-966.35 207.09,-699.25 277.01,-639 289.5,-628.24 304.37,-620.73 320.13,-615.61"/>
<polygon fill="orange" stroke="orange" points="321.08,-618.98 329.72,-612.85 319.14,-612.25 321.08,-618.98"/>
<text text-anchor="middle" x="180.63" y="-1024.33" font-family="Times,serif" font-size="14.00">hasProperty min 0</text>
</g>
<!-- SaturationMagneticPolarization -->
<g id="node12" class="node">
<title>SaturationMagneticPolarization</title>
<g id="a_node12"><a xlink:href="https://w3id.org/emmo/domain/magnetic_materials#EMMO_8ae216ed-64f9-55a0-b46f-27be41dda192" xlink:title="SaturationMagneticPolarization">
<ellipse fill="#ffffcc" stroke="red" cx="457.64" cy="-558" rx="170.63" ry="18"/>
<text text-anchor="middle" x="457.64" y="-553.33" font-family="Times,serif" font-size="14.00">SaturationMagneticPolarization</text>
</a>
</g>
</g>
<!-- MagneticHysteresisProperties&#45;&gt;SaturationMagneticPolarization -->
<g id="edge9" class="edge">
<title>MagneticHysteresisProperties&#45;&gt;SaturationMagneticPolarization</title>
<path fill="none" stroke="orange" stroke-dasharray="1,5" d="M416.07,-1078.26C325.14,-1036.46 119.85,-924.26 160.42,-778.38 187.31,-681.69 193.52,-640.69 277.01,-585 284.87,-579.75 293.36,-575.36 302.21,-571.7"/>
<polygon fill="orange" stroke="orange" points="303.22,-575.06 311.35,-568.25 300.75,-568.51 303.22,-575.06"/>
<text text-anchor="middle" x="180.63" y="-782.33" font-family="Times,serif" font-size="14.00">hasProperty min 0</text>
</g>
<!-- LoopSquareness -->
<g id="node13" class="node">
<title>LoopSquareness</title>
<g id="a_node13"><a xlink:href="https://w3id.org/emmo/domain/magnetic_materials#EMMO_f3d81518-1594-5eb0-bd68-42466e0c37d8" xlink:title="LoopSquareness">
<ellipse fill="#ffffcc" stroke="red" cx="457.64" cy="-504" rx="93.82" ry="18"/>
<text text-anchor="middle" x="457.64" y="-499.32" font-family="Times,serif" font-size="14.00">LoopSquareness</text>
</a>
</g>
</g>
<!-- MagneticHysteresisProperties&#45;&gt;LoopSquareness -->
<g id="edge10" class="edge">
<title>MagneticHysteresisProperties&#45;&gt;LoopSquareness</title>
<path fill="none" stroke="orange" stroke-dasharray="1,5" d="M299.96,-1090.66C247.22,-1080.37 193.48,-1058.81 160.42,-1015.62 93.09,-927.67 195.01,-605.47 277.01,-531 298.86,-511.15 328.71,-502.17 357.85,-498.77"/>
<polygon fill="orange" stroke="orange" points="357.83,-502.29 367.46,-497.88 357.17,-495.32 357.83,-502.29"/>
<text text-anchor="middle" x="180.63" y="-1002.33" font-family="Times,serif" font-size="14.00">hasProperty min 0</text>
</g>
<!-- CoercivityHcExternal -->
<g id="node14" class="node">
<title>CoercivityHcExternal</title>
<g id="a_node14"><a xlink:href="https://w3id.org/emmo/domain/magnetic_materials#EMMO_fe101d1d-f1f7-54f8-886b-fa6d6052ce98" xlink:title="CoercivityHcExternal">
<ellipse fill="#ffffcc" stroke="red" cx="457.64" cy="-450" rx="119.08" ry="18"/>
<text text-anchor="middle" x="457.64" y="-445.32" font-family="Times,serif" font-size="14.00">CoercivityHcExternal</text>
</a>
</g>
</g>
<!-- MagneticHysteresisProperties&#45;&gt;CoercivityHcExternal -->
<g id="edge11" class="edge">
<title>MagneticHysteresisProperties&#45;&gt;CoercivityHcExternal</title>
<path fill="none" stroke="orange" stroke-dasharray="1,5" d="M424.9,-1077.95C359.74,-1039.91 215.4,-944.44 160.42,-817.62 96.78,-670.82 153.25,-578.43 277.01,-477 291.49,-465.13 308.91,-457.29 327.14,-452.27"/>
<polygon fill="orange" stroke="orange" points="327.9,-455.69 336.79,-449.92 326.25,-448.89 327.9,-455.69"/>
<text text-anchor="middle" x="180.63" y="-804.33" font-family="Times,serif" font-size="14.00">hasProperty min 0</text>
</g>
<!-- KneeFieldExternal -->
<g id="node15" class="node">
<title>KneeFieldExternal</title>
<g id="a_node15"><a xlink:href="https://w3id.org/emmo/domain/magnetic_materials#EMMO_45a36799-2309-5097-969f-4e5c002ae2f0" xlink:title="KneeFieldExternal">
<ellipse fill="#ffffcc" stroke="red" cx="457.64" cy="-396" rx="104.87" ry="18"/>
<text text-anchor="middle" x="457.64" y="-391.32" font-family="Times,serif" font-size="14.00">KneeFieldExternal</text>
</a>
</g>
</g>
<!-- MagneticHysteresisProperties&#45;&gt;KneeFieldExternal -->
<g id="edge12" class="edge">
<title>MagneticHysteresisProperties&#45;&gt;KneeFieldExternal</title>
<path fill="none" stroke="orange" stroke-dasharray="1,5" d="M326.17,-1084.93C265.29,-1072.45 198.21,-1046.61 160.42,-993.62 85.27,-888.25 182.82,-511.77 277.01,-423 295.8,-405.29 320.92,-396.11 346.44,-391.84"/>
<polygon fill="orange" stroke="orange" points="346.86,-395.31 356.27,-390.46 345.88,-388.38 346.86,-395.31"/>
<text text-anchor="middle" x="180.63" y="-980.33" font-family="Times,serif" font-size="14.00">hasProperty min 0</text>
</g>
<!-- SwitchingFieldCoercivity -->
<g id="node16" class="node">
<title>SwitchingFieldCoercivity</title>
<g id="a_node16"><a xlink:href="https://w3id.org/emmo/domain/magnetic_materials#EMMO_bc54c47f-8560-516a-b95b-cce9f1b7344f" xlink:title="SwitchingFieldCoercivity">
<ellipse fill="#ffffcc" stroke="red" cx="457.64" cy="-342" rx="137.49" ry="18"/>
<text text-anchor="middle" x="457.64" y="-337.32" font-family="Times,serif" font-size="14.00">SwitchingFieldCoercivity</text>
</a>
</g>
</g>
<!-- MagneticHysteresisProperties&#45;&gt;SwitchingFieldCoercivity -->
<g id="edge13" class="edge">
<title>MagneticHysteresisProperties&#45;&gt;SwitchingFieldCoercivity</title>
<path fill="none" stroke="orange" stroke-dasharray="1,5" d="M420.89,-1077.97C354.12,-1042.87 214.77,-958.27 160.42,-839.62 70.69,-643.71 116.97,-513.3 277.01,-369 286.94,-360.04 298.51,-353.3 310.9,-348.3"/>
<polygon fill="orange" stroke="orange" points="311.83,-351.68 320.05,-345 309.46,-345.09 311.83,-351.68"/>
<text text-anchor="middle" x="180.63" y="-826.33" font-family="Times,serif" font-size="14.00">hasProperty min 0</text>
</g>
<!-- CoercivityBHc -->
<g id="node17" class="node">
<title>CoercivityBHc</title>
<g id="a_node17"><a xlink:href="https://w3id.org/emmo/domain/magnetic_materials#EMMO_69772e86-d7fb-5b43-9cd4-2f0770c6701f" xlink:title="CoercivityBHc">
<ellipse fill="#ffffcc" stroke="red" cx="457.64" cy="-288" rx="83.3" ry="18"/>
<text text-anchor="middle" x="457.64" y="-283.32" font-family="Times,serif" font-size="14.00">CoercivityBHc</text>
</a>
</g>
</g>
<!-- MagneticHysteresisProperties&#45;&gt;CoercivityBHc -->
<g id="edge14" class="edge">
<title>MagneticHysteresisProperties&#45;&gt;CoercivityBHc</title>
<path fill="none" stroke="orange" stroke-dasharray="1,5" d="M352.57,-1081.8C285.32,-1066.67 202.96,-1035.54 160.42,-971.62 78.31,-848.25 170.55,-418.1 277.01,-315 301.46,-291.32 337.17,-282.75 370.4,-280.78"/>
<polygon fill="orange" stroke="orange" points="370.18,-284.3 380.04,-280.42 369.91,-277.3 370.18,-284.3"/>
<text text-anchor="middle" x="180.63" y="-958.33" font-family="Times,serif" font-size="14.00">hasProperty min 0</text>
</g>
<!-- KneeField -->
<g id="node18" class="node">
<title>KneeField</title>
<g id="a_node18"><a xlink:href="https://w3id.org/emmo/domain/magnetic_materials#EMMO_ad0c038b-a09a-560c-b149-066de8f8e307" xlink:title="KneeField">
<ellipse fill="#ffffcc" stroke="red" cx="457.64" cy="-234" rx="61.73" ry="18"/>
<text text-anchor="middle" x="457.64" y="-229.32" font-family="Times,serif" font-size="14.00">KneeField</text>
</a>
</g>
</g>
<!-- MagneticHysteresisProperties&#45;&gt;KneeField -->
<g id="edge15" class="edge">
<title>MagneticHysteresisProperties&#45;&gt;KneeField</title>
<path fill="none" stroke="orange" stroke-dasharray="1,5" d="M402.5,-1078.69C313.18,-1046.87 147.94,-970.52 160.42,-844.38 186.46,-581.26 85.53,-443.34 277.01,-261 306.35,-233.06 351.4,-226.28 389.17,-226.51"/>
<polygon fill="orange" stroke="orange" points="389.04,-230 399.12,-226.75 389.21,-223.01 389.04,-230"/>
<text text-anchor="middle" x="180.63" y="-848.33" font-family="Times,serif" font-size="14.00">hasProperty min 0</text>
</g>
<!-- SwitchingFieldCoercivityExternal -->
<g id="node19" class="node">
<title>SwitchingFieldCoercivityExternal</title>
<g id="a_node19"><a xlink:href="https://w3id.org/emmo/domain/magnetic_materials#EMMO_234a6193-f057-556f-bfcd-38efde3aafc4" xlink:title="SwitchingFieldCoercivityExternal">
<ellipse fill="#ffffcc" stroke="red" cx="457.64" cy="-180" rx="180.63" ry="18"/>
<text text-anchor="middle" x="457.64" y="-175.32" font-family="Times,serif" font-size="14.00">SwitchingFieldCoercivityExternal</text>
</a>
</g>
</g>
<!-- MagneticHysteresisProperties&#45;&gt;SwitchingFieldCoercivityExternal -->
<g id="edge16" class="edge">
<title>MagneticHysteresisProperties&#45;&gt;SwitchingFieldCoercivityExternal</title>
<path fill="none" stroke="orange" stroke-dasharray="1,5" d="M373.9,-1080.09C303.36,-1061.79 206.76,-1024.1 160.42,-949.62 72.17,-807.79 158.24,-324.47 277.01,-207 281.59,-202.47 286.57,-198.49 291.88,-195"/>
<polygon fill="orange" stroke="orange" points="293.58,-198.06 300.45,-190 290.05,-192.02 293.58,-198.06"/>
<text text-anchor="middle" x="180.63" y="-936.33" font-family="Times,serif" font-size="14.00">hasProperty min 0</text>
</g>
<!-- RemanentMagneticPolarization -->
<g id="node20" class="node">
<title>RemanentMagneticPolarization</title>
<g id="a_node20"><a xlink:href="https://w3id.org/emmo/domain/magnetic_materials#EMMO_538226cb-bebb-53e5-bf37-0f12226228be" xlink:title="RemanentMagneticPolarization">
<ellipse fill="#ffffcc" stroke="red" cx="457.64" cy="-126" rx="168.53" ry="18"/>
<text text-anchor="middle" x="457.64" y="-121.33" font-family="Times,serif" font-size="14.00">RemanentMagneticPolarization</text>
</a>
</g>
</g>
<!-- MagneticHysteresisProperties&#45;&gt;RemanentMagneticPolarization -->
<g id="edge17" class="edge">
<title>MagneticHysteresisProperties&#45;&gt;RemanentMagneticPolarization</title>
<path fill="none" stroke="orange" stroke-dasharray="1,5" d="M394.34,-1078.95C304.25,-1050.45 150.85,-984.34 160.42,-866.38 186.42,-546.17 48.3,-378.61 277.01,-153 282.47,-147.61 288.51,-143 294.97,-139.07"/>
<polygon fill="orange" stroke="orange" points="296.27,-142.35 303.39,-134.51 292.93,-136.2 296.27,-142.35"/>
<text text-anchor="middle" x="180.63" y="-870.33" font-family="Times,serif" font-size="14.00">hasProperty min 0</text>
</g>
<!-- Remanence -->
<g id="node21" class="node">
<title>Remanence</title>
<g id="a_node21"><a xlink:href="https://w3id.org/emmo/domain/magnetic_materials#EMMO_8fc78216-4859-53c2-b41e-e38062b04054" xlink:title="Remanence">
<ellipse fill="#ffffcc" stroke="red" cx="457.64" cy="-72" rx="69.1" ry="18"/>
<text text-anchor="middle" x="457.64" y="-67.33" font-family="Times,serif" font-size="14.00">Remanence</text>
</a>
</g>
</g>
<!-- MagneticHysteresisProperties&#45;&gt;Remanence -->
<g id="edge18" class="edge">
<title>MagneticHysteresisProperties&#45;&gt;Remanence</title>
<path fill="none" stroke="orange" stroke-dasharray="1,5" d="M362.98,-1080.88C269.14,-1059.99 140.37,-1012.59 148.42,-910.38 177.09,-546.39 17.7,-356.04 277.01,-99 304.45,-71.79 346.71,-64.37 383.46,-64.06"/>
<polygon fill="orange" stroke="orange" points="383.11,-67.56 393.15,-64.17 383.19,-60.56 383.11,-67.56"/>
<text text-anchor="middle" x="180.63" y="-914.33" font-family="Times,serif" font-size="14.00">hasProperty exactly 1</text>
</g>
<!-- MaximumEnergyProduct -->
<g id="node22" class="node">
<title>MaximumEnergyProduct</title>
<g id="a_node22"><a xlink:href="https://w3id.org/emmo/domain/magnetic_materials#EMMO_e1028129-c23e-57ac-9174-2f34ddbf3926" xlink:title="MaximumEnergyProduct">
<ellipse fill="#ffffcc" stroke="red" cx="457.64" cy="-18" rx="136.96" ry="18"/>
<text text-anchor="middle" x="457.64" y="-13.32" font-family="Times,serif" font-size="14.00">MaximumEnergyProduct</text>
</a>
</g>
</g>
<!-- MagneticHysteresisProperties&#45;&gt;MaximumEnergyProduct -->
<g id="edge19" class="edge">
<title>MagneticHysteresisProperties&#45;&gt;MaximumEnergyProduct</title>
<path fill="none" stroke="orange" stroke-dasharray="1,5" d="M401.44,-1078.71C330.51,-1053.5 211.59,-999.17 160.42,-905.62 156.74,-898.9 159.9,-896.02 160.42,-888.38 186.39,-510.87 10.92,-314.04 277.01,-45 286.5,-35.4 297.83,-28.25 310.13,-22.99"/>
<polygon fill="orange" stroke="orange" points="311.13,-26.36 319.25,-19.55 308.66,-19.81 311.13,-26.36"/>
<text text-anchor="middle" x="180.63" y="-892.33" font-family="Times,serif" font-size="14.00">hasProperty min 0</text>
</g>
<!-- Referent -->
<g id="node6" class="node">
<title>Referent</title>
<g id="a_node6"><a xlink:href="https://w3id.org/emmo#EMMO_6f5af708_f825_4feb_a0d1_a8d813d3022b" xlink:title="Referent">
<ellipse fill="lightgray" stroke="black" cx="457.64" cy="-1384" rx="54.89" ry="18"/>
<text text-anchor="middle" x="457.64" y="-1379.33" font-family="Times,serif" font-size="14.00">Referent</text>
</a>
</g>
</g>
<!-- Property -->
<g id="node7" class="node">
<title>Property</title>
<g id="a_node7"><a xlink:href="https://w3id.org/emmo#EMMO_b7bcff25_ffc3_474e_9ab5_01b1664bd4ba" xlink:title="Property">
<ellipse fill="lightgray" stroke="black" cx="457.64" cy="-1438" rx="55.42" ry="18"/>
<text text-anchor="middle" x="457.64" y="-1433.33" font-family="Times,serif" font-size="14.00">Property</text>
</a>
</g>
</g>
<!-- key1 -->
<g id="node23" class="node">
<title>key1</title>
<text text-anchor="start" x="409.64" y="-1488.33" font-family="Times,serif" font-weight="bold" font-size="14.00">hasProperty</text>
</g>
<!-- key2 -->
<g id="node24" class="node">
<title>key2</title>
<text text-anchor="start" x="700.02" y="-1487.33" font-family="Times,serif" font-size="14.00"> </text>
</g>
<!-- key1&#45;&gt;key2 -->
<g id="edge20" class="edge">
<title>key1:e&#45;&gt;key2:w</title>
<path fill="none" stroke="orange" stroke-dasharray="1,5" d="M508.64,-1492C588.44,-1492 611.19,-1492 685.65,-1492"/>
<polygon fill="orange" stroke="orange" points="685.5,-1495.5 695.5,-1492 685.5,-1488.5 685.5,-1495.5"/>
</g>
</g>
</svg>
