<?xml version="1.0" encoding="UTF-8" standalone="no"?>
<!DOCTYPE svg PUBLIC "-//W3C//DTD SVG 1.1//EN"
 "http://www.w3.org/Graphics/SVG/1.1/DTD/svg11.dtd">
<!-- Generated by graphviz version 12.2.1 (20250203.1708)
 -->
<!-- Pages: 1 -->
<svg width="1458pt" height="825pt"
 viewBox="0.00 0.00 1457.92 825.00" xmlns="http://www.w3.org/2000/svg" xmlns:xlink="http://www.w3.org/1999/xlink">
<g id="graph0" class="graph" transform="scale(1 1) rotate(0) translate(4 821)">
<polygon fill="white" stroke="none" points="-4,4 -4,-821 1453.92,-821 1453.92,4 -4,4"/>
<!-- IntrinsicMagneticProperties -->
<g id="node1" class="node">
<title>IntrinsicMagneticProperties</title>
<g id="a_node1"><a xlink:href="https://w3id.org/emmo/domain/magnetic_materials#EMMO_af8d3fb8-20fe-5f9f-9f85-fd298e26ad7e" xlink:title="IntrinsicMagneticProperties">
<ellipse fill="#ffffcc" stroke="black" stroke-width="2" cx="447.29" cy="-324" rx="152.75" ry="18"/>
<text text-anchor="middle" x="447.29" y="-319.32" font-family="Times,serif" font-size="14.00">IntrinsicMagneticProperties</text>
</a>
</g>
</g>
<!-- Referent -->
<g id="node2" class="node">
<title>Referent</title>
<g id="a_node2"><a xlink:href="https://w3id.org/emmo#EMMO_6f5af708_f825_4feb_a0d1_a8d813d3022b" xlink:title="Referent">
<ellipse fill="#ffffcc" stroke="red" cx="1045.99" cy="-363" rx="54.89" ry="18"/>
<text text-anchor="middle" x="1045.99" y="-358.32" font-family="Times,serif" font-size="14.00">Referent</text>
</a>
</g>
</g>
<!-- IntrinsicMagneticProperties&#45;&gt;Referent -->
<g id="edge1" class="edge">
<title>IntrinsicMagneticProperties&#45;&gt;Referent</title>
<path fill="none" stroke="black" d="M583.33,-315.23C671.18,-311.66 788.04,-310.94 890.5,-323.75 926.05,-328.2 965.16,-338.18 995.13,-346.97"/>
<polygon fill="none" stroke="black" points="994.11,-350.32 1004.69,-349.83 996.11,-343.61 994.11,-350.32"/>
<text text-anchor="middle" x="769" y="-327.7" font-family="Times,serif" font-size="14.00">isA</text>
</g>
<!-- Property -->
<g id="node3" class="node">
<title>Property</title>
<g id="a_node3"><a xlink:href="https://w3id.org/emmo#EMMO_b7bcff25_ffc3_474e_9ab5_01b1664bd4ba" xlink:title="Property">
<ellipse fill="#ffffcc" stroke="red" cx="1045.99" cy="-527" rx="55.42" ry="18"/>
<text text-anchor="middle" x="1045.99" y="-522.33" font-family="Times,serif" font-size="14.00">Property</text>
</a>
</g>
</g>
<!-- IntrinsicMagneticProperties&#45;&gt;Property -->
<g id="edge2" class="edge">
<title>IntrinsicMagneticProperties&#45;&gt;Property</title>
<path fill="none" stroke="black" d="M572.9,-334.88C703.07,-346.3 888.78,-362.74 890.5,-363.75 902.71,-370.9 899.47,-379.11 908.5,-390 943.27,-431.92 988.78,-475.73 1017.46,-502.19"/>
<polygon fill="none" stroke="black" points="1014.94,-504.63 1024.67,-508.81 1019.67,-499.47 1014.94,-504.63"/>
<text text-anchor="middle" x="769" y="-367.7" font-family="Times,serif" font-size="14.00">isA</text>
</g>
<!-- SpontaneousMagnetization -->
<g id="node4" class="node">
<title>SpontaneousMagnetization</title>
<g id="a_node4"><a xlink:href="https://w3id.org/emmo/domain/magnetic_materials#EMMO_032731f8-874d-5efb-9c9d-6dafaa17ef25" xlink:title="SpontaneousMagnetization">
<ellipse fill="#ffffcc" stroke="red" cx="447.29" cy="-72" rx="148.01" ry="18"/>
<text text-anchor="middle" x="447.29" y="-67.33" font-family="Times,serif" font-size="14.00">SpontaneousMagnetization</text>
</a>
</g>
</g>
<!-- IntrinsicMagneticProperties&#45;&gt;SpontaneousMagnetization -->
<g id="edge3" class="edge">
<title>IntrinsicMagneticProperties&#45;&gt;SpontaneousMagnetization</title>
<path fill="none" stroke="orange" stroke-dasharray="1,5" d="M354.49,-339.14C290.13,-343.82 207.93,-337.06 161.52,-283.62 104.33,-217.8 193.28,-166.47 265.08,-117 284.31,-103.75 307.05,-94.4 329.82,-87.79"/>
<polygon fill="orange" stroke="orange" points="330.44,-91.25 339.18,-85.25 328.61,-84.49 330.44,-91.25"/>
<text text-anchor="middle" x="182.21" y="-270.32" font-family="Times,serif" font-size="14.00">hasProperty some</text>
</g>
<!-- MagnetocrystallineAnisotropy -->
<g id="node5" class="node">
<title>MagnetocrystallineAnisotropy</title>
<g id="a_node5"><a xlink:href="https://w3id.org/emmo/domain/magnetic_materials#EMMO_c0a72108-de97-5dff-a830-e4b617adaeef" xlink:title="MagnetocrystallineAnisotropy">
<ellipse fill="#ffffcc" stroke="red" cx="447.29" cy="-603" rx="162.22" ry="18"/>
<text text-anchor="middle" x="447.29" y="-598.33" font-family="Times,serif" font-size="14.00">MagnetocrystallineAnisotropy</text>
</a>
</g>
</g>
<!-- IntrinsicMagneticProperties&#45;&gt;MagnetocrystallineAnisotropy -->
<g id="edge4" class="edge">
<title>IntrinsicMagneticProperties&#45;&gt;MagnetocrystallineAnisotropy</title>
<path fill="none" stroke="orange" stroke-dasharray="1,5" d="M325.65,-335.49C304.79,-340.21 283.82,-346.8 265.08,-356 209.18,-383.45 186.68,-393.41 161.52,-450.38 132.43,-516.22 155.74,-519.41 265.08,-576 276.07,-581.68 287.89,-586.27 300.05,-589.95"/>
<polygon fill="orange" stroke="orange" points="298.78,-593.23 309.35,-592.56 300.66,-586.49 298.78,-593.23"/>
<text text-anchor="middle" x="182.21" y="-454.32" font-family="Times,serif" font-size="14.00">hasProperty some</text>
</g>
<!-- ExchangeStiffnessConstant -->
<g id="node6" class="node">
<title>ExchangeStiffnessConstant</title>
<g id="a_node6"><a xlink:href="https://w3id.org/emmo/domain/magnetic_materials#EMMO_526ed2a5-a017-590e-8eb8-8a900f2b3b78" xlink:title="ExchangeStiffnessConstant">
<ellipse fill="#ffffcc" stroke="red" cx="447.29" cy="-18" rx="149.06" ry="18"/>
<text text-anchor="middle" x="447.29" y="-13.32" font-family="Times,serif" font-size="14.00">ExchangeStiffnessConstant</text>
</a>
</g>
</g>
<!-- IntrinsicMagneticProperties&#45;&gt;ExchangeStiffnessConstant -->
<g id="edge5" class="edge">
<title>IntrinsicMagneticProperties&#45;&gt;ExchangeStiffnessConstant</title>
<path fill="none" stroke="orange" stroke-dasharray="1,5" d="M309.21,-315.82C293.65,-311.38 278.57,-305.29 265.08,-297 64.87,-173.95 128.54,-204.85 161.52,-133.38 186.86,-78.43 210,-70.05 265.08,-45 278.79,-38.77 293.61,-33.92 308.68,-30.15"/>
<polygon fill="orange" stroke="orange" points="309.27,-33.6 318.21,-27.93 307.68,-26.79 309.27,-33.6"/>
<text text-anchor="middle" x="182.21" y="-137.32" font-family="Times,serif" font-size="14.00">hasProperty some</text>
</g>
<!-- SpontaneousMagneticPolarization -->
<g id="node7" class="node">
<title>SpontaneousMagneticPolarization</title>
<g id="a_node7"><a xlink:href="https://w3id.org/emmo/domain/magnetic_materials#EMMO_57873439-dfa4-5b74-aec7-d530376ae11c" xlink:title="SpontaneousMagneticPolarization">
<ellipse fill="#ffffcc" stroke="red" cx="447.29" cy="-198" rx="182.21" ry="18"/>
<text text-anchor="middle" x="447.29" y="-193.32" font-family="Times,serif" font-size="14.00">SpontaneousMagneticPolarization</text>
</a>
</g>
</g>
<!-- IntrinsicMagneticProperties&#45;&gt;SpontaneousMagneticPolarization -->
<g id="edge6" class="edge">
<title>IntrinsicMagneticProperties&#45;&gt;SpontaneousMagneticPolarization</title>
<path fill="none" stroke="orange" stroke-dasharray="1,5" d="M294.43,-322.18C203.63,-315.63 114.55,-296.01 161.52,-241.38 201.31,-195.08 267.83,-182.99 326.68,-183.05"/>
<polygon fill="orange" stroke="orange" points="326.39,-186.55 336.44,-183.19 326.49,-179.55 326.39,-186.55"/>
<text text-anchor="middle" x="182.21" y="-245.32" font-family="Times,serif" font-size="14.00">hasProperty some</text>
</g>
<!-- SemioticEntity -->
<g id="node12" class="node">
<title>SemioticEntity</title>
<g id="a_node12"><a xlink:href="https://w3id.org/emmo#EMMO_b803f122_4acb_4064_9d71_c1e5fd091fc9" xlink:title="SemioticEntity">
<ellipse fill="#ffffcc" stroke="red" cx="1345.58" cy="-363" rx="85.93" ry="18"/>
<text text-anchor="middle" x="1345.58" y="-358.32" font-family="Times,serif" font-size="14.00">SemioticEntity</text>
</a>
</g>
</g>
<!-- Referent&#45;&gt;SemioticEntity -->
<g id="edge14" class="edge">
<title>Referent&#45;&gt;SemioticEntity</title>
<path fill="none" stroke="black" d="M1101.23,-363C1142.05,-363 1199.08,-363 1247.67,-363"/>
<polygon fill="none" stroke="black" points="1247.66,-366.5 1257.66,-363 1247.66,-359.5 1247.66,-366.5"/>
<text text-anchor="middle" x="1212.36" y="-366.95" font-family="Times,serif" font-size="14.00">isA</text>
</g>
<!-- Sign -->
<g id="node13" class="node">
<title>Sign</title>
<g id="a_node13"><a xlink:href="https://w3id.org/emmo#EMMO_b21a56ed_f969_4612_a6ec_cb7766f7f31d" xlink:title="Sign">
<ellipse fill="#ffffcc" stroke="red" cx="447.29" cy="-549" rx="33.85" ry="18"/>
<text text-anchor="middle" x="447.29" y="-544.33" font-family="Times,serif" font-size="14.00">Sign</text>
</a>
</g>
</g>
<!-- Referent&#45;&gt;Sign -->
<g id="edge15" class="edge">
<title>Referent&#45;&gt;Sign</title>
<path fill="none" stroke="olivedrab" d="M1024.08,-379.65C995.01,-403.68 942.18,-450.63 908.5,-500 897.29,-516.44 907.07,-529.97 890.5,-541 858.01,-562.64 598.05,-554.95 492.55,-550.87"/>
<polygon fill="olivedrab" stroke="olivedrab" points="493,-547.38 482.87,-550.49 492.72,-554.38 493,-547.38"/>
<text text-anchor="middle" x="769" y="-559.55" font-family="Times,serif" font-size="14.00">isRepresentedBy some</text>
</g>
<!-- Interpretant -->
<g id="node14" class="node">
<title>Interpretant</title>
<g id="a_node14"><a xlink:href="https://w3id.org/emmo#EMMO_054af807_85cd_4a13_8eba_119dfdaaf38b" xlink:title="Interpretant">
<ellipse fill="#ffffcc" stroke="red" cx="447.29" cy="-494" rx="73.3" ry="18"/>
<text text-anchor="middle" x="447.29" y="-489.32" font-family="Times,serif" font-size="14.00">Interpretant</text>
</a>
</g>
</g>
<!-- Referent&#45;&gt;Interpretant -->
<g id="edge16" class="edge">
<title>Referent&#45;&gt;Interpretant</title>
<path fill="none" stroke="olivedrab" d="M1030.63,-380.72C1005.74,-409.88 951.35,-466.94 890.5,-489 765.17,-534.43 606.41,-520.53 517.24,-506.89"/>
<polygon fill="olivedrab" stroke="olivedrab" points="517.84,-503.44 507.42,-505.34 516.75,-510.35 517.84,-503.44"/>
<text text-anchor="middle" x="769" y="-524.06" font-family="Times,serif" font-size="14.00">isReferredBy some</text>
</g>
<!-- Semiosis -->
<g id="node15" class="node">
<title>Semiosis</title>
<g id="a_node15"><a xlink:href="https://w3id.org/emmo#EMMO_008fd3b2_4013_451f_8827_52bceab11841" xlink:title="Semiosis">
<ellipse fill="#ffffcc" stroke="red" cx="447.29" cy="-439" rx="55.94" ry="18"/>
<text text-anchor="middle" x="447.29" y="-434.32" font-family="Times,serif" font-size="14.00">Semiosis</text>
</a>
</g>
</g>
<!-- Referent&#45;&gt;Semiosis -->
<g id="edge17" class="edge">
<title>Referent&#45;&gt;Semiosis</title>
<path fill="none" stroke="cyan" d="M1025.76,-380.01C998.13,-403.19 944.55,-443.57 890.5,-459 821.02,-478.83 615.02,-458.74 510.55,-446.67"/>
<polygon fill="cyan" stroke="cyan" points="501.05,-442.04 510.58,-446.68 500.24,-448.99 501.05,-442.04"/>
<text text-anchor="middle" x="769" y="-471.31" font-family="Times,serif" font-size="14.00">Inverse(hasReferent) some</text>
</g>
<!-- Interpreter -->
<g id="node16" class="node">
<title>Interpreter</title>
<g id="a_node16"><a xlink:href="https://w3id.org/emmo#EMMO_0527413c_b286_4e9c_b2d0_03fb2a038dee" xlink:title="Interpreter">
<ellipse fill="#ffffcc" stroke="red" cx="447.29" cy="-383" rx="67.52" ry="18"/>
<text text-anchor="middle" x="447.29" y="-378.32" font-family="Times,serif" font-size="14.00">Interpreter</text>
</a>
</g>
</g>
<!-- Referent&#45;&gt;Interpreter -->
<g id="edge18" class="edge">
<title>Referent&#45;&gt;Interpreter</title>
<path fill="none" stroke="olivedrab" d="M1014.57,-378.17C984.06,-392.46 935.32,-412.86 890.5,-421 784.24,-440.29 752.61,-445.81 647.5,-421 638.8,-418.95 638.02,-414.74 629.5,-412 595.59,-401.09 556.73,-394.18 523.72,-389.86"/>
<polygon fill="olivedrab" stroke="olivedrab" points="524.16,-386.38 513.8,-388.62 523.29,-393.33 524.16,-386.38"/>
<text text-anchor="middle" x="769" y="-441.55" font-family="Times,serif" font-size="14.00">isInterpretationAccordingTo some</text>
</g>
<!-- CodedByStructure -->
<g id="node10" class="node">
<title>CodedByStructure</title>
<g id="a_node10"><a xlink:href="https://w3id.org/emmo#EMMO_38f31ba5_348f_4ac2_9a67_a62b5dd7aadd" xlink:title="CodedByStructure">
<ellipse fill="#ffffcc" stroke="red" cx="1345.58" cy="-527" rx="104.35" ry="18"/>
<text text-anchor="middle" x="1345.58" y="-522.33" font-family="Times,serif" font-size="14.00">CodedByStructure</text>
</a>
</g>
</g>
<!-- Property&#45;&gt;CodedByStructure -->
<g id="edge11" class="edge">
<title>Property&#45;&gt;CodedByStructure</title>
<path fill="none" stroke="black" d="M1101.57,-527C1137.39,-527 1185.57,-527 1229.58,-527"/>
<polygon fill="none" stroke="black" points="1229.45,-530.5 1239.45,-527 1229.45,-523.5 1229.45,-530.5"/>
<text text-anchor="middle" x="1212.36" y="-530.95" font-family="Times,serif" font-size="14.00">isA</text>
</g>
<!-- ElectromagneticQuantity -->
<g id="node8" class="node">
<title>ElectromagneticQuantity</title>
<g id="a_node8"><a xlink:href="https://w3id.org/emmo#EMMO_af794e9d_dc7d_4756_83e1_2cd0e2ec864e" xlink:title="ElectromagneticQuantity">
<ellipse fill="#ffffcc" stroke="red" cx="1045.99" cy="-136" rx="137.49" ry="18"/>
<text text-anchor="middle" x="1045.99" y="-131.32" font-family="Times,serif" font-size="14.00">ElectromagneticQuantity</text>
</a>
</g>
</g>
<!-- SpontaneousMagnetization&#45;&gt;ElectromagneticQuantity -->
<g id="edge12" class="edge">
<title>SpontaneousMagnetization&#45;&gt;ElectromagneticQuantity</title>
<path fill="none" stroke="black" d="M560.18,-84C664.69,-95.21 820.17,-111.89 926.7,-123.31"/>
<polygon fill="none" stroke="black" points="926.33,-126.79 936.64,-124.38 927.07,-119.83 926.33,-126.79"/>
<text text-anchor="middle" x="769" y="-122.79" font-family="Times,serif" font-size="14.00">isA</text>
</g>
<!-- MagneticFieldStrengthUnit -->
<g id="node11" class="node">
<title>MagneticFieldStrengthUnit</title>
<g id="a_node11"><a xlink:href="https://w3id.org/emmo#EMMO_e6b83139_ba92_4fbd_a8b2_c8dde55844a1" xlink:title="MagneticFieldStrengthUnit">
<ellipse fill="#ffffcc" stroke="red" cx="447.29" cy="-144" rx="150.12" ry="18"/>
<text text-anchor="middle" x="447.29" y="-139.32" font-family="Times,serif" font-size="14.00">MagneticFieldStrengthUnit</text>
</a>
</g>
</g>
<!-- SpontaneousMagnetization&#45;&gt;MagneticFieldStrengthUnit -->
<g id="edge13" class="edge">
<title>SpontaneousMagnetization&#45;&gt;MagneticFieldStrengthUnit</title>
<path fill="none" stroke="orange" stroke-dasharray="5,2" d="M447.29,-90.17C447.29,-97.45 447.29,-106.02 447.29,-114.17"/>
<polygon fill="orange" stroke="orange" points="443.79,-114.07 447.29,-124.07 450.79,-114.07 443.79,-114.07"/>
<text text-anchor="middle" x="435.67" y="-103.33" font-family="Times,serif" font-size="14.00">hasMeasurementUnit some</text>
</g>
<!-- MagnetocrystallineAnisotropy&#45;&gt;Referent -->
<g id="edge7" class="edge">
<title>MagnetocrystallineAnisotropy&#45;&gt;Referent</title>
<path fill="none" stroke="black" d="M600.13,-596.83C611.03,-591.66 621.05,-584.86 629.5,-576 656.69,-547.53 619.32,-427.24 647.5,-399.75 666.89,-380.84 863.55,-383.61 890.5,-381 920.98,-378.05 954.76,-374.18 982.94,-370.79"/>
<polygon fill="none" stroke="black" points="983.24,-374.28 992.75,-369.6 982.4,-367.33 983.24,-374.28"/>
<text text-anchor="middle" x="769" y="-403.7" font-family="Times,serif" font-size="14.00">isA</text>
</g>
<!-- MagnetocrystallineAnisotropy&#45;&gt;Property -->
<g id="edge8" class="edge">
<title>MagnetocrystallineAnisotropy&#45;&gt;Property</title>
<path fill="none" stroke="black" d="M607.73,-606.03C692.43,-604.9 797.9,-599.1 890.5,-581 929.17,-573.44 971.27,-558.23 1001.74,-545.87"/>
<polygon fill="none" stroke="black" points="1002.7,-549.26 1010.61,-542.22 1000.03,-542.79 1002.7,-549.26"/>
<text text-anchor="middle" x="769" y="-609" font-family="Times,serif" font-size="14.00">isA</text>
</g>
<!-- LineEnergy -->
<g id="node17" class="node">
<title>LineEnergy</title>
<g id="a_node17"><a xlink:href="https://w3id.org/emmo/domain/magnetic_materials#EMMO_70f92e7c-fa16-51d5-9ca0-5ad635cb1322" xlink:title="LineEnergy">
<ellipse fill="#ffffcc" stroke="red" cx="1045.99" cy="-18" rx="69.1" ry="18"/>
<text text-anchor="middle" x="1045.99" y="-13.32" font-family="Times,serif" font-size="14.00">LineEnergy</text>
</a>
</g>
</g>
<!-- ExchangeStiffnessConstant&#45;&gt;LineEnergy -->
<g id="edge19" class="edge">
<title>ExchangeStiffnessConstant&#45;&gt;LineEnergy</title>
<path fill="none" stroke="black" d="M596.56,-18C713.19,-18 871.2,-18 965.16,-18"/>
<polygon fill="none" stroke="black" points="965.07,-21.5 975.07,-18 965.07,-14.5 965.07,-21.5"/>
<text text-anchor="middle" x="769" y="-21.95" font-family="Times,serif" font-size="14.00">isA</text>
</g>
<!-- SpontaneousMagneticPolarization&#45;&gt;ElectromagneticQuantity -->
<g id="edge9" class="edge">
<title>SpontaneousMagneticPolarization&#45;&gt;ElectromagneticQuantity</title>
<path fill="none" stroke="black" d="M575.2,-184.81C678.77,-174.05 824.05,-158.96 925.54,-148.41"/>
<polygon fill="none" stroke="black" points="925.68,-151.92 935.26,-147.4 924.95,-144.95 925.68,-151.92"/>
<text text-anchor="middle" x="769" y="-180.13" font-family="Times,serif" font-size="14.00">isA</text>
</g>
<!-- MagneticFluxDensityUnit -->
<g id="node9" class="node">
<title>MagneticFluxDensityUnit</title>
<g id="a_node9"><a xlink:href="https://w3id.org/emmo#EMMO_ec903946_ddc9_464a_903c_7373e0d1eeb5" xlink:title="MagneticFluxDensityUnit">
<ellipse fill="#ffffcc" stroke="red" cx="447.29" cy="-270" rx="140.65" ry="18"/>
<text text-anchor="middle" x="447.29" y="-265.32" font-family="Times,serif" font-size="14.00">MagneticFluxDensityUnit</text>
</a>
</g>
</g>
<!-- SpontaneousMagneticPolarization&#45;&gt;MagneticFluxDensityUnit -->
<g id="edge10" class="edge">
<title>SpontaneousMagneticPolarization&#45;&gt;MagneticFluxDensityUnit</title>
<path fill="none" stroke="orange" stroke-dasharray="5,2" d="M447.29,-216.17C447.29,-223.45 447.29,-232.02 447.29,-240.17"/>
<polygon fill="orange" stroke="orange" points="443.79,-240.07 447.29,-250.07 450.79,-240.07 443.79,-240.07"/>
<text text-anchor="middle" x="435.67" y="-229.32" font-family="Times,serif" font-size="14.00">hasMeasurementUnit some</text>
</g>
<!-- key1 -->
<g id="node18" class="node">
<title>key1</title>
<text text-anchor="start" x="523.79" y="-798.7" font-family="Times,serif" font-weight="bold" font-size="14.00">isA</text>
<text text-anchor="start" x="392.54" y="-776.45" font-family="Times,serif" font-size="14.00">hasMeasurementUnit</text>
<text text-anchor="start" x="451.79" y="-756.2" font-family="Times,serif" font-weight="bold" font-size="14.00">hasProperty</text>
<text text-anchor="start" x="450.29" y="-734.95" font-family="Times,serif" font-weight="bold" font-size="14.00">hasReferent</text>
<text text-anchor="start" x="346.79" y="-712.7" font-family="Times,serif" font-size="14.00">isInterpretationAccordingTo</text>
<text text-anchor="start" x="454.04" y="-691.45" font-family="Times,serif" font-size="14.00">isReferredBy</text>
<text text-anchor="start" x="426.29" y="-670.2" font-family="Times,serif" font-size="14.00">isRepresentedBy</text>
<text text-anchor="start" x="495.29" y="-648.95" font-family="Times,serif" font-size="14.00">inverse</text>
</g>
<!-- key2 -->
<g id="node19" class="node">
<title>key2</title>
<text text-anchor="start" x="1043.74" y="-796.7" font-family="Times,serif" font-size="14.00"> </text>
<text text-anchor="start" x="1043.74" y="-775.45" font-family="Times,serif" font-size="14.00"> </text>
<text text-anchor="start" x="1043.74" y="-754.2" font-family="Times,serif" font-size="14.00"> </text>
<text text-anchor="start" x="1043.74" y="-732.95" font-family="Times,serif" font-size="14.00"> </text>
<text text-anchor="start" x="1043.74" y="-711.7" font-family="Times,serif" font-size="14.00"> </text>
<text text-anchor="start" x="1043.74" y="-690.45" font-family="Times,serif" font-size="14.00"> </text>
<text text-anchor="start" x="1043.74" y="-669.2" font-family="Times,serif" font-size="14.00"> </text>
<text text-anchor="start" x="1043.74" y="-647.95" font-family="Times,serif" font-size="14.00"> </text>
</g>
<!-- key1&#45;&gt;key2 -->
<g id="edge20" class="edge">
<title>key1:e&#45;&gt;key2:w</title>
<path fill="none" stroke="black" d="M550.79,-802.38C764.72,-802.38 821.02,-801.41 1029.41,-801.38"/>
<polygon fill="none" stroke="black" points="1029.23,-804.88 1039.23,-801.38 1029.23,-797.88 1029.23,-804.88"/>
</g>
<!-- key1&#45;&gt;key2 -->
<g id="edge21" class="edge">
<title>key1:e&#45;&gt;key2:w</title>
<path fill="none" stroke="orange" stroke-dasharray="5,2" d="M550.79,-781.12C764.72,-781.12 821.02,-780.16 1029.41,-780.13"/>
<polygon fill="orange" stroke="orange" points="1029.23,-783.63 1039.23,-780.13 1029.23,-776.63 1029.23,-783.63"/>
</g>
<!-- key1&#45;&gt;key2 -->
<g id="edge22" class="edge">
<title>key1:e&#45;&gt;key2:w</title>
<path fill="none" stroke="orange" stroke-dasharray="1,5" d="M550.79,-759.88C764.72,-759.88 821.02,-758.91 1029.41,-758.88"/>
<polygon fill="orange" stroke="orange" points="1029.23,-762.38 1039.23,-758.88 1029.23,-755.38 1029.23,-762.38"/>
</g>
<!-- key1&#45;&gt;key2 -->
<g id="edge23" class="edge">
<title>key1:e&#45;&gt;key2:w</title>
<path fill="none" stroke="cyan" d="M550.79,-738.62C764.72,-738.62 821.02,-737.66 1029.41,-737.63"/>
<polygon fill="cyan" stroke="cyan" points="1029.23,-741.13 1039.23,-737.63 1029.23,-734.13 1029.23,-741.13"/>
</g>
<!-- key1&#45;&gt;key2 -->
<g id="edge24" class="edge">
<title>key1:e&#45;&gt;key2:w</title>
<path fill="none" stroke="olivedrab" d="M550.79,-717.38C764.72,-717.38 821.02,-716.41 1029.41,-716.38"/>
<polygon fill="olivedrab" stroke="olivedrab" points="1029.23,-719.88 1039.23,-716.38 1029.23,-712.88 1029.23,-719.88"/>
</g>
<!-- key1&#45;&gt;key2 -->
<g id="edge25" class="edge">
<title>key1:e&#45;&gt;key2:w</title>
<path fill="none" stroke="olivedrab" d="M550.79,-696.12C764.72,-696.12 821.02,-695.16 1029.41,-695.13"/>
<polygon fill="olivedrab" stroke="olivedrab" points="1029.23,-698.63 1039.23,-695.13 1029.23,-691.63 1029.23,-698.63"/>
</g>
<!-- key1&#45;&gt;key2 -->
<g id="edge26" class="edge">
<title>key1:e&#45;&gt;key2:w</title>
<path fill="none" stroke="olivedrab" d="M550.79,-674.88C764.72,-674.88 821.02,-673.91 1029.41,-673.88"/>
<polygon fill="olivedrab" stroke="olivedrab" points="1029.23,-677.38 1039.23,-673.88 1029.23,-670.38 1029.23,-677.38"/>
</g>
<!-- key1&#45;&gt;key2 -->
<g id="edge27" class="edge">
<title>key1:e&#45;&gt;key2:w</title>
<path fill="none" stroke="black" d="M550.79,-653.62C765.04,-653.62 821.19,-652.66 1030.34,-652.63"/>
<polygon fill="black" stroke="black" points="1040.24,-656.13 1030.24,-652.63 1040.24,-649.13 1040.24,-656.13"/>
</g>
</g>
</svg>
