<?xml version="1.0" encoding="UTF-8" standalone="no"?>
<!DOCTYPE svg PUBLIC "-//W3C//DTD SVG 1.1//EN"
 "http://www.w3.org/Graphics/SVG/1.1/DTD/svg11.dtd">
<!-- Generated by graphviz version 12.2.1 (20250203.1708)
 -->
<!-- Pages: 1 -->
<svg width="1026pt" height="467pt"
 viewBox="0.00 0.00 1025.57 467.25" xmlns="http://www.w3.org/2000/svg" xmlns:xlink="http://www.w3.org/1999/xlink">
<g id="graph0" class="graph" transform="scale(1 1) rotate(0) translate(4 463.25)">
<polygon fill="white" stroke="none" points="-4,4 -4,-463.25 1021.57,-463.25 1021.57,4 -4,4"/>
<!-- MagneticMaterial -->
<g id="node1" class="node">
<title>MagneticMaterial</title>
<g id="a_node1"><a xlink:href="https://w3id.org/emmo/domain/magnetic_materials#EMMO_c5ca93ce-ad27-5f4a-95ef-aca0990c6937" xlink:title="MagneticMaterial">
<ellipse fill="#ffffcc" stroke="black" stroke-width="2" cx="618.37" cy="-157" rx="100.66" ry="18"/>
<text text-anchor="middle" x="618.37" y="-152.32" font-family="Times,serif" font-size="14.00">MagneticMaterial</text>
</a>
</g>
</g>
<!-- Referent -->
<g id="node8" class="node">
<title>Referent</title>
<g id="a_node8"><a xlink:href="https://w3id.org/emmo#EMMO_6f5af708_f825_4feb_a0d1_a8d813d3022b" xlink:title="Referent">
<ellipse fill="#ffffcc" stroke="red" cx="902.17" cy="-184" rx="54.89" ry="18"/>
<text text-anchor="middle" x="902.17" y="-179.32" font-family="Times,serif" font-size="14.00">Referent</text>
</a>
</g>
</g>
<!-- MagneticMaterial&#45;&gt;Referent -->
<g id="edge6" class="edge">
<title>MagneticMaterial&#45;&gt;Referent</title>
<path fill="none" stroke="black" d="M708.92,-165.58C750.84,-169.6 799.78,-174.29 837.8,-177.93"/>
<polygon fill="none" stroke="black" points="837.43,-181.41 847.72,-178.88 838.09,-174.44 837.43,-181.41"/>
<text text-anchor="middle" x="757.91" y="-175.26" font-family="Times,serif" font-size="14.00">isA</text>
</g>
<!-- MaterialByStructure -->
<g id="node9" class="node">
<title>MaterialByStructure</title>
<g id="a_node9"><a xlink:href="https://w3id.org/emmo#EMMO_f00fb163_48c9_4c59_b6c2_4205c082aa54" xlink:title="MaterialByStructure">
<ellipse fill="#ffffcc" stroke="red" cx="902.17" cy="-130" rx="115.39" ry="18"/>
<text text-anchor="middle" x="902.17" y="-125.33" font-family="Times,serif" font-size="14.00">MaterialByStructure</text>
</a>
</g>
</g>
<!-- MagneticMaterial&#45;&gt;MaterialByStructure -->
<g id="edge7" class="edge">
<title>MagneticMaterial&#45;&gt;MaterialByStructure</title>
<path fill="none" stroke="black" d="M708.92,-148.42C735.13,-145.91 764.08,-143.14 791.39,-140.52"/>
<polygon fill="none" stroke="black" points="791.44,-144.03 801.06,-139.59 790.78,-137.06 791.44,-144.03"/>
<text text-anchor="middle" x="757.91" y="-148.26" font-family="Times,serif" font-size="14.00">isA</text>
</g>
<!-- Density -->
<g id="node10" class="node">
<title>Density</title>
<g id="a_node10"><a xlink:href="https://w3id.org/emmo#EMMO_06448f64_8db6_4304_8b2c_e785dba82044" xlink:title="Density">
<ellipse fill="#ffffcc" stroke="red" cx="157.48" cy="-373" rx="49.63" ry="18"/>
<text text-anchor="middle" x="157.48" y="-368.32" font-family="Times,serif" font-size="14.00">Density</text>
</a>
</g>
</g>
<!-- MagneticMaterial&#45;&gt;Density -->
<g id="edge8" class="edge">
<title>MagneticMaterial&#45;&gt;Density</title>
<path fill="none" stroke="orange" stroke-dasharray="1,5" d="M546.04,-170.29C531.4,-176.19 517.49,-184.71 507.71,-197 467.02,-248.17 536.69,-297.52 489.71,-343 415.29,-415.05 282.51,-400.85 209.71,-385.9"/>
<polygon fill="orange" stroke="orange" points="210.55,-382.5 200.04,-383.83 209.08,-389.35 210.55,-382.5"/>
<text text-anchor="middle" x="411.34" y="-401.71" font-family="Times,serif" font-size="14.00">hasProperty exactly 1</text>
</g>
<!-- ChemicalComposition -->
<g id="node11" class="node">
<title>ChemicalComposition</title>
<g id="a_node11"><a xlink:href="https://w3id.org/emmo#EMMO_7efd64d1_05a1_49cd_a7f0_783ca050d4f3" xlink:title="ChemicalComposition">
<ellipse fill="#ffc880" stroke="red" cx="157.48" cy="-319" rx="120.13" ry="18"/>
<text text-anchor="middle" x="157.48" y="-314.32" font-family="Times,serif" font-size="14.00">ChemicalComposition</text>
</a>
</g>
</g>
<!-- MagneticMaterial&#45;&gt;ChemicalComposition -->
<g id="edge9" class="edge">
<title>MagneticMaterial&#45;&gt;ChemicalComposition</title>
<path fill="none" stroke="orange" stroke-dasharray="1,5" d="M547.21,-170.57C532.34,-176.45 518.04,-184.9 507.71,-197 480.4,-229.03 520.99,-261.82 489.71,-290 460.12,-316.67 366.17,-323.01 285.85,-323.19"/>
<polygon fill="orange" stroke="orange" points="286.14,-319.69 276.13,-323.18 286.13,-326.69 286.14,-319.69"/>
<text text-anchor="middle" x="411.34" y="-325.97" font-family="Times,serif" font-size="14.00">hasProperty exactly 1</text>
</g>
<!-- IntrinsicMagneticProperties -->
<g id="node12" class="node">
<title>IntrinsicMagneticProperties</title>
<g id="a_node12"><a xlink:href="https://w3id.org/emmo/domain/magnetic_materials#EMMO_af8d3fb8-20fe-5f9f-9f85-fd298e26ad7e" xlink:title="IntrinsicMagneticProperties">
<ellipse fill="#ffffcc" stroke="red" cx="157.48" cy="-265" rx="152.75" ry="18"/>
<text text-anchor="middle" x="157.48" y="-260.32" font-family="Times,serif" font-size="14.00">IntrinsicMagneticProperties</text>
</a>
</g>
</g>
<!-- MagneticMaterial&#45;&gt;IntrinsicMagneticProperties -->
<g id="edge10" class="edge">
<title>MagneticMaterial&#45;&gt;IntrinsicMagneticProperties</title>
<path fill="none" stroke="orange" stroke-dasharray="1,5" d="M551.14,-171.24C535.43,-177.13 519.76,-185.41 507.71,-197 492.49,-211.65 506.82,-228.6 489.71,-241 461.97,-261.12 388.55,-267.73 317.87,-269.04"/>
<polygon fill="orange" stroke="orange" points="318.02,-265.53 308.07,-269.18 318.12,-272.53 318.02,-265.53"/>
<text text-anchor="middle" x="411.34" y="-272.46" font-family="Times,serif" font-size="14.00">hasProperty exactly 1</text>
</g>
<!-- CrystallineMagneticMaterial -->
<g id="node2" class="node">
<title>CrystallineMagneticMaterial</title>
<g id="a_node2"><a xlink:href="https://w3id.org/emmo/domain/magnetic_materials#EMMO_aaa107b8-4dd9-5fc8-b135-a604a0cb38b1" xlink:title="CrystallineMagneticMaterial">
<ellipse fill="#ffffcc" stroke="black" stroke-width="2" cx="157.48" cy="-144" rx="155.38" ry="18"/>
<text text-anchor="middle" x="157.48" y="-139.32" font-family="Times,serif" font-size="14.00">CrystallineMagneticMaterial</text>
</a>
</g>
</g>
<!-- CrystallineMagneticMaterial&#45;&gt;MagneticMaterial -->
<g id="edge2" class="edge">
<title>CrystallineMagneticMaterial&#45;&gt;MagneticMaterial</title>
<path fill="none" stroke="black" d="M312.34,-141.36C368.22,-141.19 431.85,-141.91 489.71,-144.75 499.25,-145.22 509.17,-145.87 519.08,-146.64"/>
<polygon fill="none" stroke="black" points="518.48,-150.1 528.73,-147.42 519.05,-143.12 518.48,-150.1"/>
<text text-anchor="middle" x="411.34" y="-148.7" font-family="Times,serif" font-size="14.00">isA</text>
</g>
<!-- GranularStructure -->
<g id="node5" class="node">
<title>GranularStructure</title>
<g id="a_node5"><a xlink:href="https://w3id.org/emmo/domain/magnetic_materials#EMMO_75b995e0-2bac-5812-a7f6-f8c1731d1d5c" xlink:title="GranularStructure">
<ellipse fill="#ffffcc" stroke="red" cx="618.37" cy="-103" rx="104.35" ry="18"/>
<text text-anchor="middle" x="618.37" y="-98.33" font-family="Times,serif" font-size="14.00">GranularStructure</text>
</a>
</g>
</g>
<!-- CrystallineMagneticMaterial&#45;&gt;GranularStructure -->
<g id="edge1" class="edge">
<title>CrystallineMagneticMaterial&#45;&gt;GranularStructure</title>
<path fill="none" stroke="black" d="M254.77,-129.23C280.15,-125.71 307.55,-122.26 332.96,-119.75 389.48,-114.17 452.52,-110.22 504.86,-107.57"/>
<polygon fill="none" stroke="black" points="504.87,-111.07 514.68,-107.08 504.52,-104.08 504.87,-111.07"/>
<text text-anchor="middle" x="411.34" y="-123.7" font-family="Times,serif" font-size="14.00">isA</text>
</g>
<!-- AmorphousMagneticMaterial -->
<g id="node3" class="node">
<title>AmorphousMagneticMaterial</title>
<g id="a_node3"><a xlink:href="https://w3id.org/emmo/domain/magnetic_materials#EMMO_694b3915-3326-5fb2-87a1-20ccf1dc79dc" xlink:title="AmorphousMagneticMaterial">
<ellipse fill="#ffffcc" stroke="black" cx="157.48" cy="-211" rx="157.48" ry="18"/>
<text text-anchor="middle" x="157.48" y="-206.32" font-family="Times,serif" font-size="14.00">AmorphousMagneticMaterial</text>
</a>
</g>
</g>
<!-- AmorphousMagneticMaterial&#45;&gt;MagneticMaterial -->
<g id="edge12" class="edge">
<title>AmorphousMagneticMaterial&#45;&gt;MagneticMaterial</title>
<path fill="none" stroke="black" d="M269.27,-197.96C346.22,-188.91 447.73,-176.96 521.26,-168.31"/>
<polygon fill="none" stroke="black" points="521.33,-171.83 530.85,-167.18 520.51,-164.87 521.33,-171.83"/>
<text text-anchor="middle" x="411.34" y="-194.37" font-family="Times,serif" font-size="14.00">isA</text>
</g>
<!-- AmorphousMaterial -->
<g id="node13" class="node">
<title>AmorphousMaterial</title>
<g id="a_node13"><a xlink:href="https://w3id.org/emmo#EMMO_0afc19b0_2d43_4b3d_8da0_9ffb63bc1492" xlink:title="AmorphousMaterial">
<ellipse fill="#ffffcc" stroke="red" cx="618.37" cy="-224" rx="110.66" ry="18"/>
<text text-anchor="middle" x="618.37" y="-219.32" font-family="Times,serif" font-size="14.00">AmorphousMaterial</text>
</a>
</g>
</g>
<!-- AmorphousMagneticMaterial&#45;&gt;AmorphousMaterial -->
<g id="edge11" class="edge">
<title>AmorphousMagneticMaterial&#45;&gt;AmorphousMaterial</title>
<path fill="none" stroke="black" d="M310.97,-215.32C371.73,-217.04 440.63,-218.99 497.69,-220.61"/>
<polygon fill="none" stroke="black" points="497.33,-224.1 507.43,-220.89 497.53,-217.1 497.33,-224.1"/>
<text text-anchor="middle" x="411.34" y="-224.11" font-family="Times,serif" font-size="14.00">isA</text>
</g>
<!-- MainMagneticPhase -->
<g id="node4" class="node">
<title>MainMagneticPhase</title>
<g id="a_node4"><a xlink:href="https://w3id.org/emmo/domain/magnetic_materials#EMMO_8894d78f-5d53-540e-a278-17c93e1be2ab" xlink:title="MainMagneticPhase">
<ellipse fill="#ffffcc" stroke="black" cx="157.48" cy="-18" rx="113.29" ry="18"/>
<text text-anchor="middle" x="157.48" y="-13.32" font-family="Times,serif" font-size="14.00">MainMagneticPhase</text>
</a>
</g>
</g>
<!-- MainMagneticPhase&#45;&gt;MagneticMaterial -->
<g id="edge4" class="edge">
<title>MainMagneticPhase&#45;&gt;MagneticMaterial</title>
<path fill="none" stroke="black" d="M253.64,-27.82C338.39,-38.3 454.29,-57.48 489.71,-86.75 505.77,-100.01 491.91,-116.45 507.71,-130 513.04,-134.57 519.01,-138.38 525.36,-141.57"/>
<polygon fill="none" stroke="black" points="523.64,-144.64 534.2,-145.47 526.46,-138.23 523.64,-144.64"/>
<text text-anchor="middle" x="411.34" y="-90.7" font-family="Times,serif" font-size="14.00">isA</text>
</g>
<!-- PhaseOfMatter -->
<g id="node6" class="node">
<title>PhaseOfMatter</title>
<g id="a_node6"><a xlink:href="https://w3id.org/emmo#EMMO_668fbd5b_6f1b_405c_9c6b_d6067bd0595a" xlink:title="PhaseOfMatter">
<ellipse fill="#ffffcc" stroke="red" cx="618.37" cy="-18" rx="87.51" ry="18"/>
<text text-anchor="middle" x="618.37" y="-13.32" font-family="Times,serif" font-size="14.00">PhaseOfMatter</text>
</a>
</g>
</g>
<!-- MainMagneticPhase&#45;&gt;PhaseOfMatter -->
<g id="edge3" class="edge">
<title>MainMagneticPhase&#45;&gt;PhaseOfMatter</title>
<path fill="none" stroke="black" d="M271.03,-18C346.98,-18 446.23,-18 519.01,-18"/>
<polygon fill="none" stroke="black" points="518.94,-21.5 528.94,-18 518.94,-14.5 518.94,-21.5"/>
<text text-anchor="middle" x="411.34" y="-21.95" font-family="Times,serif" font-size="14.00">isA</text>
</g>
<!-- VolumeFraction -->
<g id="node7" class="node">
<title>VolumeFraction</title>
<g id="a_node7"><a xlink:href="https://w3id.org/emmo#EMMO_a8eb87b5_4d10_4137_a75c_e04ee59ca095" xlink:title="VolumeFraction">
<ellipse fill="#ffffcc" stroke="red" cx="157.48" cy="-90" rx="90.14" ry="18"/>
<text text-anchor="middle" x="157.48" y="-85.33" font-family="Times,serif" font-size="14.00">VolumeFraction</text>
</a>
</g>
</g>
<!-- MainMagneticPhase&#45;&gt;VolumeFraction -->
<g id="edge5" class="edge">
<title>MainMagneticPhase&#45;&gt;VolumeFraction</title>
<path fill="none" stroke="orange" stroke-dasharray="1,5" d="M157.48,-36.17C157.48,-43.45 157.48,-52.02 157.48,-60.17"/>
<polygon fill="orange" stroke="orange" points="153.98,-60.07 157.48,-70.07 160.98,-60.07 153.98,-60.07"/>
<text text-anchor="middle" x="145.86" y="-49.33" font-family="Times,serif" font-size="14.00">hasProperty some</text>
</g>
<!-- key1 -->
<g id="node14" class="node">
<title>key1</title>
<text text-anchor="start" x="181.48" y="-440.95" font-family="Times,serif" font-weight="bold" font-size="14.00">isA</text>
<text text-anchor="start" x="109.48" y="-419.7" font-family="Times,serif" font-weight="bold" font-size="14.00">hasProperty</text>
</g>
<!-- key2 -->
<g id="node15" class="node">
<title>key2</title>
<text text-anchor="start" x="616.12" y="-438.95" font-family="Times,serif" font-size="14.00"> </text>
<text text-anchor="start" x="616.12" y="-417.7" font-family="Times,serif" font-size="14.00"> </text>
</g>
<!-- key1&#45;&gt;key2 -->
<g id="edge13" class="edge">
<title>key1:e&#45;&gt;key2:w</title>
<path fill="none" stroke="black" d="M208.48,-444.62C384.46,-444.62 431.29,-443.67 601.72,-443.63"/>
<polygon fill="none" stroke="black" points="601.61,-447.13 611.61,-443.63 601.61,-440.13 601.61,-447.13"/>
</g>
<!-- key1&#45;&gt;key2 -->
<g id="edge14" class="edge">
<title>key1:e&#45;&gt;key2:w</title>
<path fill="none" stroke="orange" stroke-dasharray="1,5" d="M208.48,-423.38C384.46,-423.38 431.29,-422.42 601.72,-422.38"/>
<polygon fill="orange" stroke="orange" points="601.61,-425.88 611.61,-422.38 601.61,-418.88 601.61,-425.88"/>
</g>
</g>
</svg>
